<svg width="21" height="22" viewBox="0 0 21 22" fill="none" xmlns="http://www.w3.org/2000/svg">
<g id="mdi:airplane-marker">
<path id="Vector" d="M13.7382 10.0817C12.676 10.8357 11.9521 11.9765 11.7222 13.2587L10.3362 10.6037L6.83521 14.0867L7.14121 16.3367L6.19621 17.2907L4.60321 14.4197L1.74121 12.8357L2.69521 11.8817L4.92721 12.1967L8.42821 8.68666L1.74121 5.19466L3.01021 3.92566L11.2902 5.83366L14.7912 2.33266C14.9159 2.2064 15.0645 2.10615 15.2283 2.03773C15.392 1.96931 15.5677 1.93408 15.7452 1.93408C15.9227 1.93408 16.0984 1.96931 16.2622 2.03773C16.4259 2.10615 16.5745 2.2064 16.6992 2.33266C17.2212 2.86366 17.2212 3.73666 16.6992 4.24066L13.1982 7.74166L13.7382 10.0817ZM19.7412 14.0867C19.7412 16.4267 16.5912 19.9367 16.5912 19.9367C16.5912 19.9367 13.4412 16.4267 13.4412 14.0867C13.4412 12.3767 14.8812 10.9367 16.5912 10.9367C18.3012 10.9367 19.7412 12.3767 19.7412 14.0867ZM17.6712 14.1767C17.6712 13.6367 17.1312 13.0967 16.5912 13.0967C16.0512 13.0967 15.5112 13.5467 15.5112 14.1767C15.5112 14.7167 15.9612 15.2567 16.5912 15.2567C17.2212 15.2567 17.7612 14.7167 17.6712 14.1767Z" fill="#D07100"/>
</g>
</svg>
