<svg width="18" height="19" viewBox="0 0 18 19" fill="none" xmlns="http://www.w3.org/2000/svg">
<g id="Pin_alt_fill">
<path id="Subtract" fill-rule="evenodd" clip-rule="evenodd" d="M9.34767 13.9684C10.5204 13.3517 14.249 11.0993 14.249 7.3916C14.249 4.49211 11.8985 2.1416 8.99902 2.1416C6.09953 2.1416 3.74902 4.49211 3.74902 7.3916C3.74902 11.0993 7.47768 13.3517 8.65038 13.9684C8.86984 14.0838 9.12821 14.0838 9.34767 13.9684ZM8.99977 9.6415C10.2424 9.6415 11.2498 8.63414 11.2498 7.3915C11.2498 6.14886 10.2424 5.1415 8.99977 5.1415C7.75713 5.1415 6.74977 6.14886 6.74977 7.3915C6.74977 8.63414 7.75713 9.6415 8.99977 9.6415Z" fill="#D07100"/>
<path id="Ellipse 40" d="M13.5466 13.0166C14.0074 13.3586 14.25 13.7466 14.25 14.1416C14.25 14.5366 14.0074 14.9246 13.5466 15.2666C13.0859 15.6086 12.4231 15.8927 11.625 16.0902C10.8269 16.2876 9.92157 16.3916 9 16.3916C8.07843 16.3916 7.1731 16.2876 6.375 16.0902C5.5769 15.8927 4.91415 15.6086 4.45337 15.2666C3.99258 14.9246 3.75 14.5366 3.75 14.1416C3.75 13.7466 3.99258 13.3586 4.45337 13.0166" stroke="#D07100" stroke-width="1.74094" stroke-linecap="round"/>
</g>
</svg>
