<svg viewBox="0 0 23 24" fill="none" xmlns="http://www.w3.org/2000/svg">
<path d="M9.58776 7.54053C10.185 6.05159 10.4836 5.30712 10.9688 5.20394C11.0964 5.17681 11.2282 5.17681 11.3558 5.20394C11.841 5.30712 12.1396 6.05159 12.7368 7.54053C13.0765 8.38726 13.2463 8.81063 13.5641 9.09859C13.6532 9.17935 13.7499 9.25129 13.853 9.31338C14.2202 9.53474 14.6787 9.5758 15.5957 9.65792C17.1479 9.79694 17.9241 9.86645 18.1611 10.309C18.2102 10.4006 18.2436 10.4999 18.2598 10.6026C18.3384 11.0984 17.7678 11.6175 16.6267 12.6557L16.3098 12.944C15.7763 13.4294 15.5095 13.672 15.3552 13.9749C15.2627 14.1566 15.2006 14.3523 15.1716 14.5541C15.1231 14.8905 15.2012 15.2426 15.3574 15.9467L15.4132 16.1983C15.6934 17.4611 15.8335 18.0924 15.6586 18.4028C15.5015 18.6816 15.2122 18.86 14.8926 18.8753C14.5368 18.8923 14.0354 18.4837 13.0327 17.6667C12.3721 17.1284 12.0418 16.8592 11.6751 16.7541C11.34 16.658 10.9846 16.658 10.6495 16.7541C10.2828 16.8592 9.95252 17.1284 9.29189 17.6667C8.28917 18.4837 7.78781 18.8923 7.43199 18.8753C7.11238 18.86 6.82305 18.6816 6.66597 18.4028C6.4911 18.0924 6.63119 17.4611 6.91136 16.1983L6.96717 15.9467C7.1234 15.2426 7.20152 14.8905 7.15304 14.5541C7.12396 14.3523 7.06191 14.1566 6.96935 13.9749C6.81506 13.672 6.5483 13.4294 6.0148 12.944L5.69791 12.6557C4.55676 11.6175 3.98619 11.0984 4.06477 10.6026C4.08104 10.4999 4.11442 10.4006 4.1635 10.309C4.40052 9.86645 5.17665 9.79694 6.72891 9.65792C7.64588 9.5758 8.10436 9.53474 8.47163 9.31338C8.57465 9.25129 8.6714 9.17935 8.76053 9.09859C9.07829 8.81063 9.24812 8.38726 9.58776 7.54053Z" fill="#F3CC40" stroke="#F3CC40" stroke-width="1.86038"/>
</svg>
