<svg width="72" height="66" viewBox="0 0 72 66" fill="none" xmlns="http://www.w3.org/2000/svg">
<rect width="72" height="66" fill="#1E1E1E"/>
<g id="1 version" clip-path="url(#clip0_0_1)">
<rect width="1440" height="7606" transform="translate(-225 -2857)" fill="white"/>
<g id="Group 24">
<g id="Frame 103">
<g id="Group 18">
<g id="Rectangle 40" filter="url(#filter0_d_0_1)">
<rect x="-32" y="-21" width="360" height="108" rx="12" fill="white"/>
</g>
<g id="Group">
<g id="Group_2">
<path id="Vector" fill-rule="evenodd" clip-rule="evenodd" d="M45.0489 64.6913C40.441 65.7074 35.2485 64.6913 30.9329 63.107C25.8952 61.3849 20.995 58.2162 16.6794 54.8925C-11.5526 33.4006 -1.75224 15.2324 29.6434 4.40036C39.4438 0.80116 59.1649 -3.83131 67.0912 5.41641C72.9886 12.3393 72.7135 23.4469 70.7018 31.6613C67.7961 44.3532 59.5947 61.3676 45.0489 64.6913Z" fill="#A1BC51"/>
</g>
<g id="Group_3">
<g id="Group_4">
<path id="Vector_2" fill-rule="evenodd" clip-rule="evenodd" d="M30.813 40.978H41.1292V56.6664H30.813V40.978ZM52.563 47.9353V39.8759C54.1276 38.5154 55.9157 36.7244 56.38 36.2767C56.8098 35.3812 57.0162 33.1424 57.0162 32.9186C57.0162 32.2642 56.5863 31.782 56.1565 31.5753C55.8986 31.5753 55.8985 31.5753 55.8985 31.5753C55.4687 31.5753 54.7982 32.0058 54.7982 32.6775C54.7982 33.573 54.5403 34.7096 54.3339 35.1401C54.1276 35.3812 52.9756 36.5005 51.8752 37.396H48.299C47.1642 36.5005 46.0466 35.3812 45.8403 35.1401C45.5824 34.7096 45.376 33.573 45.376 32.6775C45.376 32.0058 44.7055 31.5753 44.2756 31.5753C43.5879 31.782 43.1409 32.2642 43.1409 32.9186C43.1409 33.1424 43.3816 35.3812 43.8114 36.2767C44.2756 36.7244 45.8403 38.2915 47.4221 39.6348V47.9353H52.563ZM50.1043 36.9311C51.4626 36.9311 52.563 35.8289 52.563 34.2446C52.563 32.9013 51.4626 31.782 50.1043 31.782C48.5397 31.782 47.4221 32.9186 47.4221 34.2446C47.4221 35.8289 48.5225 36.9311 50.1043 36.9311ZM50.3106 47.6942H50.1043C49.8808 47.6942 49.8808 47.6942 49.6401 47.6942V45.2316H50.3106V47.6942ZM21.8551 47.0226V35.8289C23.884 34.0379 26.3599 31.5753 27.0304 30.6798C27.4603 29.5605 27.9245 26.8568 27.9245 26.1851C27.9245 25.2896 27.2539 24.6352 26.5662 24.6352C26.3427 24.6352 26.3427 24.6352 26.3427 24.6352C25.6721 24.6352 24.9844 25.0658 24.778 25.9613C24.778 27.0806 24.5717 28.8888 24.1075 29.3194C23.9012 29.7843 22.5429 31.1104 20.9611 32.4708H15.5966C14.2383 31.1104 12.6737 29.7843 12.4502 29.3194C12.1923 28.8888 11.7796 27.0806 11.7796 25.9613C11.7796 25.0658 11.1091 24.6352 10.215 24.6352C10.215 24.6352 10.215 24.6352 10.0087 24.6352C9.33814 24.6352 8.65039 25.2896 8.65039 26.1851C8.85671 26.8395 9.08023 29.5432 9.75078 30.6798C10.215 31.5753 12.4674 33.8141 14.4618 35.6051V47.0226H21.8551ZM18.0725 31.782C20.067 31.782 21.6488 30.2321 21.6488 28.2C21.6488 26.1851 20.0842 24.618 18.0725 24.618C16.25 24.618 14.4618 26.1679 14.4618 28.2C14.4618 30.2321 16.25 31.782 18.0725 31.782ZM18.5024 46.7987C18.5024 46.7987 18.5024 46.7987 18.296 46.7987C18.0897 46.7987 17.8318 46.7987 17.6255 46.7987V43.4406H18.5195V46.7987H18.5024ZM42.0233 39.8759V22.1726C45.376 19.245 49.4166 15.6631 50.0871 14.3026C50.9812 12.3049 51.6517 8.05135 51.6517 7.15585C51.6517 5.79539 50.7576 4.69324 49.3993 4.45215C49.3993 4.45215 49.3994 4.45215 49.193 4.45215C48.0583 4.45215 46.9407 5.34764 46.9407 6.69089C46.7343 8.70575 46.2701 11.1856 45.8403 12.0983C45.376 12.7527 43.1237 14.9914 40.665 17.0063H32.6012C30.1425 14.9914 27.9245 12.7527 27.4603 12.0983C27.0304 11.1856 26.5662 8.72297 26.3599 6.69089C26.3599 5.34764 25.2251 4.45215 23.9012 4.45215C23.9012 4.45215 23.9012 4.45215 23.6605 4.45215C22.5601 4.69324 21.4425 5.79539 21.666 7.15585C21.666 8.05135 22.3365 12.3049 23.2306 14.3026C23.9012 15.6631 27.4774 19.0212 30.6239 21.7077V39.8759H42.0233ZM36.4181 15.8697C39.5646 15.8697 42.0233 13.4071 42.0233 10.2729C42.0233 7.13863 39.5646 4.67602 36.4181 4.67602C33.2717 4.67602 30.813 7.13863 30.813 10.2729C30.813 13.4071 33.2889 15.8697 36.4181 15.8697ZM13.1551 47.6942H23.4369V61.3678H13.1551V47.6942ZM21.6488 58.2335V59.5768H14.9433C14.9433 59.1462 15.1496 58.9224 15.1496 58.6813C15.3559 58.2335 15.6138 57.7858 16.0437 57.3553C16.25 56.8903 16.9377 56.4598 17.6083 55.7881C18.7087 54.8926 19.3964 54.221 19.8606 53.7561C20.067 53.3255 20.2905 52.6539 20.2905 52.2062C20.2905 51.7584 20.0842 51.3107 19.8606 51.0868C19.3964 50.639 18.9666 50.639 18.5024 50.639C17.8318 50.639 17.402 50.639 16.9377 51.0868C16.7314 51.3279 16.4735 51.9823 16.4735 52.4473H15.3731C15.3731 51.5518 15.6138 50.8801 16.2672 50.1913C16.7314 49.7608 17.6255 49.5197 18.5195 49.5197C19.4136 49.5197 20.0842 49.7608 20.7719 50.4324C21.4425 50.8801 21.666 51.5518 21.666 52.2234C21.666 52.6711 21.4425 53.1189 21.4425 53.5666C21.1846 53.7733 20.9782 54.2382 20.5484 54.6688C20.0842 55.1337 19.6543 55.8054 18.7259 56.4942C17.8318 57.1486 17.402 57.5963 17.1956 57.5963C16.9377 57.8202 16.9377 58.0441 16.7314 58.2508H21.6488V58.2335ZM44.9634 49.0547H55.2452V61.3678H44.9634V49.0547ZM46.9579 57.5619L48.0582 57.3553C48.299 58.0097 48.5225 58.4574 48.7288 58.9051C49.193 59.129 49.4166 59.3529 50.0871 59.3529C50.5169 59.3529 50.9812 59.1462 51.4454 58.6813C51.8752 58.2335 52.0816 57.7858 52.0816 57.3553C52.0816 56.6664 51.8752 56.2014 51.4454 55.7881C51.1875 55.5643 50.7749 55.3232 50.0871 55.3232C49.8636 55.3232 49.6229 55.3232 49.193 55.3232L49.3993 54.4277C49.3993 54.4277 49.3994 54.4277 49.6057 54.4277C50.0699 54.4277 50.4997 54.221 50.964 53.9799C51.4282 53.7561 51.6517 53.3255 51.6517 52.6367C51.6517 52.1889 51.4282 51.9478 51.1875 51.5173C50.7577 51.2934 50.5169 51.2934 50.0871 51.2934C49.4166 51.2934 49.193 51.2934 48.7288 51.5173C48.5225 51.9478 48.299 52.4128 48.299 52.8606H46.9407C47.147 51.9478 47.4049 51.2934 48.0411 50.8457C48.5053 50.3979 49.1758 50.1568 49.8636 50.1568C50.5169 50.1568 50.964 50.3979 51.4282 50.3979C51.8581 50.8457 52.3223 51.0523 52.5286 51.5173C52.7349 51.9478 52.7349 52.1717 52.7349 52.8606C52.7349 53.0672 52.7349 53.5149 52.5286 53.9627C52.3223 54.2038 51.8581 54.4104 51.4282 54.6343C52.0644 54.8754 52.5286 55.0993 52.7521 55.547C53.2163 55.9948 53.2163 56.6664 53.2163 57.1142C53.2163 58.0097 52.9584 58.9052 52.3223 59.3529C51.6517 60.0417 50.964 60.2484 50.0699 60.2484C49.1758 60.2484 48.5053 60.0417 47.8175 59.5768C47.1642 59.1462 46.9579 58.2335 46.9579 57.5619ZM37.7764 53.7388H36.6761V46.1271C36.4353 46.351 35.9539 46.5921 35.5413 46.7987C35.077 47.2637 34.6472 47.2637 34.2174 47.4876V46.3682C34.8535 45.9205 35.5413 45.7138 35.9711 45.2488C36.4353 44.8183 36.8996 44.3534 37.1059 43.9056H37.7764V53.7388Z" fill="#7F973A"/>
</g>
</g>
<g id="Group_5">
<g id="Group_6">
<path id="Vector_3" fill-rule="evenodd" clip-rule="evenodd" d="M34.2343 45.5928H44.5505V61.2811H34.2343V45.5928ZM55.9671 52.5501V44.4906C57.5317 43.1301 59.3199 41.3392 59.7841 40.8914C60.2139 39.9959 60.4202 37.7572 60.4202 37.5333C60.4202 36.8789 59.9904 36.4139 59.5606 36.1901C59.3026 36.1901 59.3027 36.1901 59.3027 36.1901C58.8728 36.1901 58.2023 36.6206 58.2023 37.2922C58.2023 38.1877 57.9444 39.3243 57.738 39.7548C57.5317 39.9787 56.3797 41.1153 55.2793 42.0108H51.703C50.5511 41.1153 49.4507 39.9959 49.2444 39.7548C49.0036 39.3243 48.7801 38.1877 48.7801 37.2922C48.7801 36.6206 48.0924 36.1901 47.6625 36.1901C46.992 36.3967 46.5278 36.8617 46.5278 37.5333C46.5278 37.7572 46.7685 39.9959 47.1983 40.8914C47.6625 41.3392 49.2272 42.9063 50.809 44.2495V52.5501H55.9671ZM53.5084 41.563C54.8667 41.563 55.9671 40.4609 55.9671 38.8765C55.9671 37.5333 54.8667 36.4139 53.5084 36.4139C51.9438 36.4139 50.8262 37.5333 50.8262 38.8765C50.8262 40.4437 51.9438 41.563 53.5084 41.563ZM53.7319 52.3262H53.5256C53.3193 52.3262 53.3193 52.3262 53.0614 52.3262V49.8636H53.7491V52.3262H53.7319ZM25.2764 51.6374V40.4437C27.3052 38.6527 29.7811 36.1901 30.4517 35.2946C30.8815 34.1752 31.3458 31.4715 31.3458 30.7999C31.3458 29.9044 30.658 29.25 29.9875 29.25C29.7811 29.25 29.7811 29.25 29.7811 29.25C29.0934 29.25 28.4228 29.6805 28.2165 30.576C28.2165 31.6954 28.0102 33.5036 27.5288 33.9341C27.3225 34.3991 25.9642 35.7251 24.3823 37.0856H19.0351C17.6768 35.7251 16.1122 34.3991 15.8887 33.9341C15.6308 33.5036 15.2181 31.6954 15.2181 30.576C15.2181 29.6805 14.5304 29.25 13.6535 29.25C13.6535 29.25 13.6535 29.25 13.4472 29.25C12.7766 29.25 12.0889 29.9044 12.0889 30.7999C12.2952 31.4543 12.5187 34.158 13.1893 35.2946C13.6535 36.1901 15.9059 38.4288 17.9003 40.2026V51.6374H25.2764ZM21.4938 36.4139C23.4883 36.4139 25.0701 34.864 25.0701 32.832C25.0701 30.8171 23.5055 29.25 21.4938 29.25C19.6713 29.25 17.8831 30.7999 17.8831 32.832C17.8831 34.8468 19.6713 36.4139 21.4938 36.4139ZM21.9236 51.4307C21.9236 51.4307 21.9236 51.4307 21.7173 51.4307C21.511 51.4307 21.2531 51.4307 21.0468 51.4307V48.0726H21.9408V51.4307H21.9236ZM45.4445 44.4906V26.7874C48.7973 23.8598 52.8378 20.2778 53.5084 18.9173C54.4024 16.9197 55.073 12.6661 55.073 11.7706C55.073 10.4101 54.1789 9.30799 52.8206 9.06689C52.8206 9.06689 52.8207 9.06689 52.6143 9.06689C51.4795 9.06689 50.3619 9.96239 50.3619 11.3056C50.1556 13.3205 49.6914 15.8003 49.2615 16.713C48.7973 17.3674 46.545 19.6062 44.0863 21.621H36.0224C33.5637 19.6062 31.3458 17.3674 30.8815 16.713C30.4517 15.8003 29.9875 13.3377 29.7811 11.3056C29.7811 9.96239 28.6464 9.06689 27.3224 9.06689C27.3224 9.06689 27.3224 9.06689 27.0817 9.06689C25.9813 9.29077 24.8637 10.4101 25.0873 11.7706C25.0873 12.6661 25.7578 16.9197 26.6519 18.9173C27.3224 20.2778 30.8987 23.6359 34.0452 26.3224V44.4906H45.4445ZM39.8394 20.5017C42.9859 20.5017 45.4445 18.0391 45.4445 14.9048C45.4445 11.7706 42.9859 9.30799 39.8394 9.30799C36.693 9.30799 34.2343 11.7706 34.2343 14.9048C34.2343 18.0218 36.693 20.5017 39.8394 20.5017ZM16.5592 52.3262H26.841V65.9997H16.5592V52.3262ZM25.0529 62.8483V64.1915H18.3474C18.3474 63.761 18.5537 63.5371 18.5537 63.296C18.76 62.8483 19.0179 62.4005 19.4477 61.97C19.6541 61.505 20.3418 61.0745 21.0124 60.4029C22.1128 59.5074 22.8005 58.8358 23.2647 58.3708C23.4711 57.9403 23.6946 57.2686 23.6946 56.8209C23.6946 56.3731 23.4883 55.9254 23.2647 55.7015C22.8005 55.2538 22.3707 55.2538 21.9064 55.2538C21.2359 55.2538 20.8061 55.2538 20.3418 55.7015C20.1355 55.9254 19.8776 56.597 19.8776 57.062H18.7772C18.7772 56.1665 19.0351 55.4949 19.6713 54.806C20.1355 54.3755 21.0296 54.1344 21.9236 54.1344C22.8177 54.1344 23.4883 54.3927 24.176 55.0471C24.8466 55.4949 25.0701 56.1665 25.0701 56.8381C25.0701 57.2859 24.8638 57.7336 24.8638 58.1814C24.6058 58.4052 24.3995 58.8702 23.9697 59.2835C23.5055 59.7485 23.0756 60.4373 22.1472 61.1089C21.2531 61.7806 20.8232 62.2283 20.6169 62.2283C20.3762 62.435 20.3762 62.6761 20.1527 62.8827H25.0529V62.8483ZM48.3675 53.6867H58.6493V65.9997H48.3675V53.6867ZM50.3619 62.1939L51.4623 61.97C51.7202 62.6244 51.9266 63.0721 52.1329 63.5199C52.5971 63.7438 52.8034 63.9676 53.4912 63.9676C53.921 63.9676 54.3853 63.761 54.8495 63.296C55.2793 62.8483 55.4857 62.4005 55.4857 61.97C55.4857 61.2984 55.2793 60.8334 54.8495 60.4029C54.5916 60.1618 54.1789 59.9379 53.4912 59.9379C53.2849 59.9379 53.027 59.9379 52.5971 59.9379L52.8034 59.0424C52.8034 59.0424 52.8035 59.0424 53.0098 59.0424C53.474 59.0424 53.9038 58.8358 54.3681 58.5947C54.8323 58.3708 55.0386 57.9403 55.0386 57.2514C55.0386 56.8037 54.8323 56.5626 54.5744 56.1493C54.1446 55.9082 53.9039 55.9082 53.474 55.9082C52.8035 55.9082 52.5799 55.9082 52.1157 56.1493C51.9094 56.5798 51.6859 57.0448 51.6859 57.4925H50.3276C50.5339 56.5798 50.7918 55.9254 51.428 55.4777C51.8922 55.0299 52.5627 54.7888 53.2505 54.7888C53.8867 54.7888 54.3509 55.0127 54.8151 55.0127C55.245 55.4604 55.7092 55.6671 55.9155 56.132C56.1218 56.5626 56.1218 56.7864 56.1218 57.4753C56.1218 57.6819 56.1218 58.1297 55.9155 58.5774C55.7092 58.8185 55.245 59.0252 54.8151 59.2491C55.4513 59.5074 55.9155 59.714 56.139 60.1618C56.6032 60.6095 56.6032 61.2811 56.6032 61.7289C56.6032 62.6244 56.3453 63.5199 55.7092 63.9676C55.0214 64.6393 54.3509 64.8631 53.4568 64.8631C52.5627 64.8631 51.8922 64.6393 51.2044 64.1743C50.5855 63.761 50.3619 62.8483 50.3619 62.1939ZM41.1977 58.3708H40.0973V50.7591C39.8394 50.9829 39.3752 51.2241 38.9625 51.4307C38.4983 51.8957 38.0685 51.8957 37.6386 52.1195V50.983C38.2748 50.5352 38.9626 50.3286 39.3924 49.8636C39.8566 49.4331 40.3208 48.9681 40.5272 48.5203H41.2149V58.3708H41.1977Z" fill="white"/>
</g>
</g>
</g>
</g>
</g>
</g>
</g>
<defs>
<filter id="filter0_d_0_1" x="-82" y="-46" width="460" height="208" filterUnits="userSpaceOnUse" color-interpolation-filters="sRGB">
<feFlood flood-opacity="0" result="BackgroundImageFix"/>
<feColorMatrix in="SourceAlpha" type="matrix" values="0 0 0 0 0 0 0 0 0 0 0 0 0 0 0 0 0 0 127 0" result="hardAlpha"/>
<feOffset dy="25"/>
<feGaussianBlur stdDeviation="25"/>
<feComposite in2="hardAlpha" operator="out"/>
<feColorMatrix type="matrix" values="0 0 0 0 0 0 0 0 0 0 0 0 0 0 0 0 0 0 0.08 0"/>
<feBlend mode="normal" in2="BackgroundImageFix" result="effect1_dropShadow_0_1"/>
<feBlend mode="normal" in="SourceGraphic" in2="effect1_dropShadow_0_1" result="shape"/>
</filter>
<clipPath id="clip0_0_1">
<rect width="1440" height="7606" fill="white" transform="translate(-225 -2857)"/>
</clipPath>
</defs>
</svg>
