<svg width="72" height="61" viewBox="0 0 72 61" fill="none" xmlns="http://www.w3.org/2000/svg">
<g id="Group">
<g id="Group_2">
<g id="Group_3">
<g id="Group_4">
<path id="Vector" fill-rule="evenodd" clip-rule="evenodd" d="M5.87189 54.9795C0.468218 50.8567 -0.358577 44.0001 0.113876 38.0499C0.660149 35.2283 0.719207 34.7166 1.51647 31.4564C4.61694 19.9946 13.9331 3.51828 26.2759 0.652824C37.8658 -2.13953 48.7617 4.48318 57.3397 11.8369C57.3397 11.8369 57.3397 11.8369 57.5907 12.0123C65.6814 19.6291 74.658 32.4652 71.2623 44.2486C67.6746 55.959 48.6731 59.804 38.4121 60.6227C28.7415 61.6022 13.4016 60.9882 5.87189 54.9795Z" fill="#A1BC51"/>
</g>
</g>
</g>
<g id="Group_5">
<g id="Group_6">
<path id="Vector_2" fill-rule="evenodd" clip-rule="evenodd" d="M33.2298 16.9973C37.098 16.9973 40.3461 20.0528 40.3461 24.044C40.3461 27.8451 37.098 30.886 33.2298 30.886C29.1844 30.886 26.1135 27.8451 26.1135 24.044C26.1282 20.0528 29.1844 16.9973 33.2298 16.9973ZM33.2298 12.436C39.5783 12.436 44.7606 17.5675 44.7606 24.044C44.7606 30.3158 39.5783 35.4619 33.2298 35.4619C26.8812 35.4619 21.4923 30.3158 21.4923 24.044C21.4923 17.5675 26.8959 12.436 33.2298 12.436ZM33.2298 16.4417C37.2751 16.4417 40.7447 19.8774 40.7447 24.044C40.7447 28.0351 37.2751 31.4708 33.2298 31.4708C28.9925 31.4708 25.7148 28.0351 25.7148 24.044C25.7296 19.8627 29.0072 16.4417 33.2298 16.4417ZM33.2298 7.68457L34.5733 9.58512L35.7397 7.88924L36.8765 9.97986L38.22 8.44479L38.9878 10.7401L40.7299 9.58512L41.0991 11.8658L42.8412 10.9301V13.2108L44.7458 12.4506L44.3767 14.9213L46.488 14.3658L45.7202 16.6464H47.8315L46.6651 18.737L48.7764 18.9125L47.4624 20.8276L49.367 21.3978L47.6543 23.0937L49.5884 24.044L47.6543 25.3744L49.367 26.5147L47.2557 27.655L48.7912 28.9854L46.488 29.7456L47.8315 31.2807L45.3216 31.6462L46.488 33.5614H43.9781L44.7458 35.4619L42.4426 35.0818L42.8412 36.997L40.5085 36.4122L40.7299 38.5028L38.3972 37.3478L38.22 39.4385L36.2859 37.918L35.7397 40.0086L33.9975 38.2981L33.2298 40.1987L31.6943 38.2981L30.5279 40.0086L29.583 37.918L28.018 39.4385L27.2651 37.1724L25.7296 38.5028L25.3605 36.0321L23.6183 36.9824V34.6871L21.507 35.4473L21.9057 32.9766L19.9716 33.5467L20.7393 31.2661H18.628L19.5729 29.1755L17.6684 28.9854L19.0119 27.0849L17.0778 26.5147L18.6133 24.8188L16.8711 24.044L18.8052 22.5089L17.0778 21.3832L19.1891 20.2282L17.6684 18.8978L19.9716 18.1376L18.628 16.6172L20.9312 16.2371L19.9863 14.3365H22.2895L21.5218 12.4213L24.0317 12.8161L23.6331 10.9009L25.9363 11.4857L25.7591 9.5705L27.8704 10.5208L28.0476 8.43017L30.1588 9.96523L30.5575 7.87462L32.2701 9.5705L33.2298 7.68457ZM33.2298 11.2956C40.1542 11.2956 45.9269 16.9973 45.9269 24.044C45.9269 30.886 40.1689 36.6022 33.2298 36.6022C26.1135 36.6022 20.5326 30.886 20.5326 24.044C20.5474 16.9973 26.1282 11.2956 33.2298 11.2956ZM24.5927 36.7777L18.6133 50.681L22.6586 49.1605L24.3713 55.8125L30.3508 39.8478L29.3763 38.3128L28.0328 39.6431L27.2651 37.5525L25.7296 38.6929L25.1538 36.4122L24.5927 36.7777ZM41.8816 36.997L47.861 51.0611L43.8157 49.526L42.103 56.0025L36.1235 40.0233L36.5222 38.3128L38.4267 39.6431L38.6482 37.7426L40.7595 38.6929V36.7777L41.8816 36.997Z" fill="#7F973A"/>
</g>
</g>
<g id="Group_7">
<g id="Group_8">
<path id="Vector_3" fill-rule="evenodd" clip-rule="evenodd" d="M36.1684 20.9304C40.0366 20.9304 43.2847 23.9859 43.2847 27.977C43.2847 31.7928 40.0366 34.819 36.1684 34.819C32.123 34.819 29.052 31.7781 29.052 27.977C29.052 23.9713 32.123 20.9304 36.1684 20.9304ZM36.1684 16.3544C42.5169 16.3544 47.6992 21.4859 47.6992 27.9624C47.6992 34.2343 42.5169 39.3804 36.1684 39.3804C29.8198 39.3804 24.4309 34.2343 24.4309 27.9624C24.4309 21.4859 29.8198 16.3544 36.1684 16.3544ZM36.1684 20.3602C40.2137 20.3602 43.6833 23.7958 43.6833 27.9624C43.6833 31.9536 40.2137 35.3892 36.1684 35.3892C31.931 35.3892 28.6534 31.9536 28.6534 27.9624C28.6534 23.7958 31.931 20.3602 36.1684 20.3602ZM36.1684 11.603L37.5119 13.5036L38.6783 11.8077L39.8151 13.8983L41.1586 12.3633L41.9264 14.6585L43.6685 13.5036L44.0376 15.7842L45.7798 14.8486V17.1293L47.6844 16.369L47.3153 18.8398L49.4266 18.2842L48.6588 20.5649H50.7701L49.6037 22.6555L51.715 22.8309L50.401 24.7461L52.3056 25.3309L50.5929 27.0268L52.5418 27.9624L50.6077 29.2928L52.3203 30.4331L50.209 31.5735L51.7445 32.9039L49.4413 33.6641L50.7849 35.1992L48.275 35.5646L49.4413 37.4798H46.9314L47.6992 39.3804L45.3959 39.0003L45.7946 40.9154L43.4618 40.3453L43.6685 42.4359L41.3358 41.2809L41.1586 43.3715L39.2245 41.8511L38.6783 43.9417L36.9361 42.2312L36.1684 44.1318L34.6329 42.2312L33.4665 43.9563L32.5216 41.8657L30.9566 43.3862L30.1889 41.1055L28.6534 42.4359L28.2843 39.9652L26.5421 40.9154V38.6202L24.4309 39.3804L24.8295 36.9096L22.8954 37.4798L23.6631 35.1992H21.5519L22.4968 33.1085L20.5922 32.9039L21.9357 31.0033L20.0016 30.4185L21.5371 28.7226L19.7949 27.9624L21.729 26.4274L20.0164 25.3016L22.1277 24.1467L20.5922 22.8163L22.8954 22.0561L21.5519 20.5356L23.8551 20.1555L22.9102 18.255H25.2134L24.4456 16.3398L26.9555 16.7345L26.5569 14.8193L28.8601 15.4041L28.6829 13.489L30.7942 14.4392L30.9714 12.3486L33.0827 13.8837L33.4665 11.8077L35.1792 13.5036L36.1684 11.603ZM36.1684 15.2141C43.0927 15.2141 48.8655 20.9157 48.8655 27.9624C48.8655 34.8044 43.1075 40.5207 36.1684 40.5207C29.052 40.5207 23.4712 34.819 23.4712 27.9624C23.4712 20.9304 29.052 15.2141 36.1684 15.2141ZM27.5166 40.7108L21.5371 54.6141L25.5825 53.0936L27.2951 59.7456L33.2746 43.7809L32.2854 42.2458L30.9418 43.5762L30.1741 41.4856L28.6386 42.6259L28.0628 40.3453L27.5166 40.7108ZM44.8054 40.9154L50.7849 54.9796L46.7395 53.4445L45.0268 59.921L39.0474 43.9417L39.446 42.2312L41.3506 43.5616L41.572 41.661L43.6833 42.5967V40.6815L44.8054 40.9154Z" fill="white"/>
<path id="Star 2" d="M36 22L37.3471 26.1459H41.7063L38.1796 28.7082L39.5267 32.8541L36 30.2918L32.4733 32.8541L33.8204 28.7082L30.2937 26.1459H34.6529L36 22Z" fill="#A1BC51"/>
</g>
</g>
</g>
</svg>
