<svg width="72" height="72" viewBox="0 0 72 72" fill="none" xmlns="http://www.w3.org/2000/svg">
<g id="Group">
<g id="Group_2">
<path id="Vector" fill-rule="evenodd" clip-rule="evenodd" d="M70.3723 26.2183C73.0427 37.0414 73.0427 51.2601 65.6328 60.1379C53.7839 74.3566 30.5282 74.3566 14.9655 67.0882C9.78381 64.7184 4.00085 61.3051 1.04748 54.6379C-1.3223 49.4562 0.74691 42.7891 3.11669 37.7489C6.07006 31.2408 11.1279 24.8565 15.8497 19.3742C22.0748 12.2649 34.8079 1.15876 44.5877 0.115348C46.9575 -0.185296 49.3273 0.115425 51.3964 0.858191C63.263 4.5897 68.0202 16.4385 70.3723 26.2183Z" fill="#A1BC51"/>
</g>
<g id="Group_3">
<g id="Group_4">
<path id="Vector_2" fill-rule="evenodd" clip-rule="evenodd" d="M6.06994 49.9336C4.46061 50.1459 3.31111 51.7729 3.54101 53.3822C4.0185 54.9915 5.15036 55.9111 6.54747 55.9111C6.75969 55.9111 7.00718 55.9111 7.21939 55.9111L19.8995 53.3822C20.5893 53.3822 21.0313 52.9401 21.7387 52.2504L27.2564 45.5654L36.7002 50.411L30.2629 60.7745C29.3433 62.1362 29.7854 64.2053 31.1648 64.895C31.8545 65.3548 32.3143 65.567 32.7918 65.567C33.9413 65.567 34.8609 64.8951 35.5506 63.9754L43.6149 50.8532C44.0748 49.9336 44.3047 49.014 44.0748 48.3242C43.8449 47.4046 43.1375 46.7326 42.4478 46.4851L33.9414 42.1168L42.9252 32.6732L49.3802 38.1908C50.07 38.8805 50.7596 39.1105 51.4493 39.1105C52.1391 39.1105 52.8288 38.8805 53.5186 38.1908L61.123 31.0462C62.2726 30.1266 62.2726 28.075 61.353 26.8902C60.6632 26.448 59.9734 25.9706 59.0538 25.9706C58.3641 25.9706 57.6568 26.2181 57.2146 26.6779L51.467 31.9657C51.467 31.9657 36.9478 18.6314 34.4012 16.1024C33.7115 15.4127 33.0217 14.9529 32.332 14.9529C32.1021 14.9529 31.8721 14.9529 31.6422 15.1828L20.1295 17.9416C18.5024 18.1538 17.6004 19.7809 18.0602 21.3902C18.2901 22.7696 19.4397 23.7069 20.8191 23.7069C21.0313 23.7069 21.2789 23.7069 21.5088 23.4416L31.1825 21.3902C31.8722 22.0799 35.1085 25.5462 35.5683 25.9706C31.6423 30.3565 27.504 34.7246 23.5779 39.0928C23.348 39.0928 23.3481 39.0928 23.3481 39.0928C22.8883 39.7648 22.6584 40.4722 22.6584 41.1619L17.5828 47.5992L6.06994 49.9336ZM55.8529 17.694C55.8529 13.9978 52.8642 11.0269 49.168 11.0269C45.4719 11.0269 42.4831 13.9978 42.4831 17.694C42.4831 21.3901 45.4896 24.3789 49.168 24.3789C52.8642 24.3966 55.8529 21.3901 55.8529 17.694Z" fill="#7F973A"/>
</g>
</g>
<g id="Group_5">
<g id="Group_6">
<path id="Vector_3" fill-rule="evenodd" clip-rule="evenodd" d="M9.57189 54.6733C7.96257 54.9032 6.81306 56.5125 7.04297 58.1218C7.50277 59.7312 8.65231 60.6508 10.0494 60.6508C10.2616 60.6508 10.5092 60.6508 10.7215 60.6508L23.4015 58.1218C24.0912 58.1218 24.5333 57.6797 25.2407 56.99L30.7761 50.305L40.2199 55.1508L33.7825 65.5141C32.8629 66.8758 33.3227 68.9449 34.6845 69.6523C35.3742 70.1121 35.834 70.3243 36.3114 70.3243C37.461 70.3243 38.3806 69.6524 39.0703 68.7328L47.1346 55.6105C47.6121 54.6909 47.8243 53.7713 47.6121 53.0816C47.3822 52.162 46.6749 51.49 45.9851 51.2424L37.4787 46.8742L46.4626 37.4305L52.9176 42.9482C53.6073 43.6202 54.297 43.8678 54.9867 43.8678C55.6764 43.8678 56.3662 43.6379 57.0559 42.9482L64.6604 35.8035C65.8099 34.8839 65.8099 32.8324 64.8903 31.6475C64.2006 31.2054 63.5108 30.7278 62.5912 30.7278C61.9015 30.7278 61.2118 30.9578 60.752 31.4176L55.0044 36.7053C55.0044 36.7053 40.4852 23.371 37.9385 20.842C37.2488 20.1523 36.559 19.6925 35.8693 19.6925C35.6394 19.6925 35.4095 19.6925 35.1796 19.9224L23.6491 22.6812C22.0221 22.9111 21.1202 24.5205 21.58 26.1298C21.8099 27.5092 22.9594 28.4465 24.3388 28.4465C24.5511 28.4465 24.7986 28.4465 25.0285 28.1989L34.7022 26.1475C35.3919 26.8549 38.6282 30.3034 39.088 30.7455C35.1619 35.1314 31.0237 39.4996 27.0977 43.8678C26.8678 43.8678 26.8678 43.8678 26.8678 43.8678C26.408 44.5575 26.178 45.2472 26.178 45.9546L21.1025 52.3918L9.57189 54.6733ZM59.3549 22.4513C59.3549 18.7552 56.3661 15.7842 52.67 15.7842C48.9738 15.7842 45.9851 18.7552 45.9851 22.4513C45.9851 26.1475 48.9915 29.1363 52.67 29.1363C56.3661 29.1363 59.3549 26.1475 59.3549 22.4513Z" fill="white"/>
</g>
</g>
</g>
</svg>
