<svg width="72" height="62" viewBox="0 0 72 62" fill="none" xmlns="http://www.w3.org/2000/svg">
<g id="Group">
<g id="Group_2">
<g id="Group_3">
<g id="Group_4">
<g id="Group_5">
<path id="Vector" fill-rule="evenodd" clip-rule="evenodd" d="M5.87193 55.8884C0.468249 51.6975 -0.358579 44.7275 0.113874 38.679C0.674911 35.8107 0.719221 35.2906 1.51649 31.9765C4.61695 20.3252 13.9331 3.5765 26.2759 0.663679C37.8658 -2.17484 48.7617 4.55733 57.3397 12.0177C57.3397 12.0177 57.3397 12.0178 57.5907 12.1961C65.6815 19.9388 74.658 32.9871 71.2623 44.9653C67.6746 56.8693 48.6731 60.7778 38.4121 61.61C28.7563 62.6206 13.4164 61.9816 5.87193 55.8884Z" fill="#A1BC51"/>
</g>
</g>
</g>
<g id="Group_6">
<g id="Group_7">
<path id="Vector_2" fill-rule="evenodd" clip-rule="evenodd" d="M57.6792 20.2807C57.6792 20.6522 57.4725 20.8603 57.2953 20.8603H55.7598C55.3612 20.8603 55.3612 20.6671 55.3612 20.4739L55.184 11.1855C55.184 10.7991 55.3612 10.606 55.5679 10.606H57.1033C57.4872 10.606 57.4872 10.7992 57.4872 10.9924L57.6792 20.2807ZM54.623 20.4739C54.623 20.6671 54.4311 20.8603 54.2244 20.8603H52.6889C52.305 20.8603 52.305 20.6671 52.305 20.4739L52.0983 11.1855C52.0983 10.9923 52.305 10.7992 52.4822 10.7992L54.0324 10.606C54.4163 10.7992 54.4163 10.7991 54.4163 11.1855L54.623 20.4739ZM39.9917 21.0535C39.9917 21.4547 39.9917 21.4547 39.5931 21.4547L38.0576 21.633C37.6737 21.633 37.6737 21.4547 37.6737 21.0535L37.4818 11.9732C37.4818 11.5868 37.6738 11.3936 37.8805 11.3936H39.4159C39.7998 11.3936 39.7998 11.5868 40.0065 11.9732V21.0535H39.9917ZM36.906 21.2467C36.906 21.4399 36.7141 21.633 36.5074 21.633H34.9719C34.588 21.633 34.588 21.4547 34.588 21.2467L34.3961 11.9583C34.3961 11.5719 34.5881 11.3787 34.7948 11.3787H36.3302C36.7141 11.3787 36.7141 11.5719 36.7141 11.9583L36.906 21.2467ZM9.57757 52.7824C18.628 52.9608 23.2492 58.5784 38.0576 56.4532C42.6788 55.8587 47.6839 55.8587 50.1642 55.8587C51.1239 55.8587 51.9064 55.2791 52.0983 54.5064C52.6889 51.4152 54.4163 48.1159 54.4163 41.7404C54.4163 34.3989 51.1386 29.3609 51.1386 23.1638C51.1386 20.8454 50.9615 19.1066 50.7548 17.5611C51.1387 17.5611 51.3306 17.353 51.1386 16.9815V14.6631C51.1386 14.2767 51.1387 14.0835 50.7548 14.0835L41.5272 14.2767C41.1433 14.2767 40.9366 14.4699 40.9366 14.8563V17.3678C41.1286 17.3678 41.1285 17.5759 41.3205 17.7543C41.8963 20.6522 42.8707 26.0766 40.7594 26.6562C33.4364 33.9977 39.9917 40.9677 36.3302 37.8616C30.7493 31.8725 20.5621 35.3501 20.5621 35.3501C17.6683 30.3269 11.1278 31.2781 9.40041 31.8577C9.01654 31.8577 8.82463 32.0509 8.82463 32.4373V52.1731C8.80987 52.5744 9.1937 52.7824 9.57757 52.7824Z" fill="#7F973A"/>
</g>
</g>
<g id="Group_8">
<g id="Group_9">
<path id="Vector_3" fill-rule="evenodd" clip-rule="evenodd" d="M60.6177 24.278C60.6177 24.6643 60.4258 24.8576 60.2338 24.8576H58.6984C58.2998 24.8576 58.2997 24.6495 58.2997 24.4563L58.1226 15.168C58.1226 14.7816 58.2998 14.5884 58.5065 14.5884H60.0419C60.4258 14.5884 60.4258 14.7816 60.4258 14.9748L60.6177 24.278ZM57.5468 24.4563C57.5468 24.6495 57.3548 24.8576 57.1481 24.8576H55.6127C55.2288 24.8576 55.2288 24.6495 55.2288 24.4563L55.0221 15.168C55.0221 14.9748 55.2288 14.7816 55.406 14.7816L56.9562 14.5884C57.3401 14.7816 57.3401 14.7816 57.3401 15.168L57.5468 24.4563ZM42.9155 25.0359C42.9155 25.4223 42.9155 25.4223 42.5169 25.4223L40.9814 25.6006C40.5976 25.6006 40.5976 25.4223 40.5976 25.021L40.4056 15.9259C40.4056 15.5395 40.5975 15.3463 40.8042 15.3463H42.3397C42.7236 15.3463 42.7236 15.5395 42.9155 15.9259V25.0359ZM39.8446 25.2291C39.8446 25.4223 39.6527 25.6155 39.446 25.6155H37.9105C37.5266 25.6155 37.5266 25.4372 37.5266 25.2291L37.3347 15.9408C37.3347 15.5544 37.5266 15.3612 37.7333 15.3612H39.2688C39.6527 15.3612 39.6526 15.5544 39.6526 15.9408L39.8446 25.2291ZM12.5162 56.7649C21.5666 56.9432 26.1877 62.5608 40.9962 60.4356C45.6026 59.856 50.6224 59.856 53.1028 59.856C54.0772 59.856 54.8597 59.2764 55.0369 58.5037C55.6274 55.4125 57.3549 52.1132 57.3549 45.7377C57.3549 38.3962 54.0772 33.3582 54.0772 27.1611C54.0772 24.8427 53.9 23.1039 53.6933 21.5583C54.0772 21.5583 54.2839 21.3503 54.0772 20.9788V18.6604C54.0772 18.274 54.0772 18.0808 53.6933 18.0808L44.4658 18.274C44.0819 18.274 43.89 18.4672 43.89 18.8536V21.3651C44.0819 21.3651 44.0819 21.5732 44.2738 21.7516C44.8496 24.6495 45.824 30.0739 43.7128 30.6535C36.3898 37.995 42.945 44.965 39.2835 41.8589C33.7027 35.8698 23.5154 39.3474 23.5154 39.3474C20.6217 34.3094 14.0959 35.2754 12.3537 35.8549C11.9699 35.8549 11.778 36.0482 11.778 36.4346V56.1704C11.7484 56.5717 12.1323 56.7649 12.5162 56.7649Z" fill="white"/>
</g>
</g>
</g>
</g>
</svg>
