<svg width="72" height="66" viewBox="0 0 72 66" fill="none" xmlns="http://www.w3.org/2000/svg">
<g id="Group">
<g id="Group_2">
<path id="Vector" fill-rule="evenodd" clip-rule="evenodd" d="M0.176199 33.7123C3.57626 14.0688 48.2879 -8.63162 65.5349 3.31778C74.9775 9.43142 72.0355 27.755 69.3754 36.9254C66.8561 45.6443 61.254 58.8964 52.1108 62.5263C40.3075 67.3374 24.3642 62.6653 14.0407 56.2737C6.81777 51.3064 -1.30362 43.6122 0.176199 33.7123Z" fill="#A1BC51"/>
</g>
<g id="Group_3">
<g id="Group_4">
<path id="Vector_2" fill-rule="evenodd" clip-rule="evenodd" d="M41.0472 23.5693C40.3601 23.3435 39.9197 22.4404 39.9197 21.763C39.9197 21.0857 40.3601 20.1825 41.0472 19.9567C41.9633 19.2794 42.4389 18.3762 42.4389 17.4731C42.4389 16.7957 42.1923 16.3441 41.7519 16.1183V15.441C42.1923 15.2152 42.4389 14.9894 42.4389 14.5378V12.5057C42.4389 11.151 41.7519 10.0221 40.5716 9.57048C39.4441 9.34469 38.299 8.89312 37.3829 8.89312C36.643 8.66733 36.2202 7.98996 36.2202 7.3126V5.73209C36.2202 4.82893 35.3041 3.92578 34.1414 3.92578H31.3931C30.2657 3.92578 29.3496 4.82893 29.3496 5.73209V7.3126C29.3496 7.98996 28.8739 8.66733 28.1869 8.89312C27.2708 8.89312 26.1433 9.34469 25.2272 9.57048C24.5402 10.0221 24.0645 10.2478 23.6241 10.6994C23.4127 11.3768 23.1484 11.8284 23.1484 12.5057V14.5378C23.1484 15.0068 23.4127 15.2152 24.0645 15.441V16.1183C23.4127 16.3441 23.1484 16.7957 23.1484 17.4731C23.1484 18.3588 23.6241 19.2794 24.7516 19.9567C25.2272 20.1825 25.9143 21.0857 25.9143 21.763C25.9143 22.4404 25.2272 23.3435 24.7516 23.5693C23.6241 24.0383 23.1484 25.1498 23.1484 26.053V55.666C23.1484 58.6186 25.9319 61.328 28.8915 61.328H36.6782C39.9373 61.328 42.4566 58.6186 42.4566 55.666V26.053C42.4389 25.1672 41.9633 24.0383 41.0472 23.5693ZM26.5661 11.151C27.0418 11.151 27.0418 11.3594 27.0418 11.6026C27.0418 11.8284 27.0418 12.2799 26.5661 12.2799C26.1257 12.2799 25.9143 12.5057 25.9143 12.9573V13.652C25.9143 14.0862 25.65 14.0862 25.2272 14.0862C24.9982 14.0862 24.7516 14.0862 24.7516 13.652V12.9573C24.734 11.8284 25.65 11.151 26.5661 11.151ZM27.0418 36.6824L27.5174 36.9082C27.5174 37.134 27.0418 37.3598 27.0418 37.3598C26.3371 37.3598 26.1257 37.5855 26.1257 37.8113V56.1175C26.1257 56.326 25.9143 56.326 25.65 56.326C25.2096 56.326 24.9982 56.326 24.9982 56.1175V37.8113C24.9806 37.1513 25.8967 36.6824 27.0418 36.6824ZM38.7394 11.151C39.6555 11.151 40.5716 11.8284 40.5716 12.9573V13.4089C40.5716 13.8605 40.1311 14.0862 40.1311 14.0862C39.6555 14.0862 39.4441 13.8605 39.4441 13.4089V12.9573C39.4441 12.2799 38.9684 12.0541 38.7394 12.0541C38.299 12.0541 38.0347 11.8457 38.0347 11.6199C38.0523 11.151 38.299 11.151 38.7394 11.151ZM38.7394 36.6824C39.6555 36.6824 40.5716 37.134 40.5716 37.8113V56.1175C40.5716 56.326 40.1311 56.326 40.1311 56.326C39.6555 56.326 39.4441 56.326 39.4441 56.1175V37.8113C39.4441 37.5855 38.9684 37.3598 38.7394 37.3598C38.299 37.3598 38.0347 37.134 38.0347 36.9082C38.0523 36.9082 38.299 36.6824 38.7394 36.6824ZM40.8358 15.441V15.8925H24.9982V15.441H40.8358ZM31.3931 4.81157H34.1414C34.8813 4.81157 35.0927 5.26314 35.0927 5.71471H30.4771C30.4771 5.26314 30.9527 4.81157 31.3931 4.81157ZM24.0469 12.5057C24.0469 12.2799 24.2935 11.8284 24.5226 11.3768C24.734 11.1684 25.2096 10.6994 25.4386 10.4736C26.3547 10.2478 27.5174 10.0221 28.4335 9.79626C29.8252 9.34469 30.4771 8.44154 30.4771 7.3126V6.63523H35.0927V7.3126C35.0927 8.44154 36.0088 9.34469 37.1363 9.79626C38.3166 10.0221 39.2151 10.2478 40.1311 10.4736C41.0472 10.9252 41.4876 11.8284 41.4876 12.5057V14.312H24.0469V12.5057ZM41.4876 55.666C41.4876 58.1496 39.4441 60.1817 36.6606 60.1817H28.8739C26.3547 60.1817 24.0469 58.1496 24.0469 55.666V26.053C24.0469 25.3756 24.5226 24.9241 25.2096 24.6983C26.1257 24.0209 26.8128 22.892 26.8128 21.763C26.8128 20.6341 26.1081 19.5051 25.2096 19.0536C24.5226 18.8278 24.0469 18.1504 24.0469 17.4731C24.0469 17.0041 24.2935 17.0041 24.734 17.0041H41.0472C41.2586 17.0041 41.4876 17.0041 41.4876 17.4731C41.4876 18.1504 41.2762 18.8278 40.5716 19.0536C39.4441 19.5051 38.9684 20.6341 38.9684 21.763C38.9684 22.892 39.4441 24.0209 40.5716 24.6983C41.2586 24.9241 41.4876 25.3756 41.4876 26.053V55.666Z" fill="#7F973A"/>
</g>
</g>
<g id="Group_5">
<g id="Group_6">
<path id="Vector_3" fill-rule="evenodd" clip-rule="evenodd" d="M44.5531 28.2412C43.866 28.0154 43.4256 27.1123 43.4256 26.4349C43.4256 25.7575 43.866 24.8544 44.5531 24.6286C45.4692 23.9512 45.9448 23.0481 45.9448 22.1449C45.9448 21.4676 45.6982 21.016 45.2402 20.7902V20.1128C45.6806 19.8871 45.9448 19.6613 45.9448 19.2097V17.1776C45.9448 15.8229 45.2401 14.6939 44.0774 14.2424C42.95 14.0166 41.8049 13.565 40.8888 13.565C40.1489 13.3392 39.7085 12.6618 39.7085 11.9845V10.4039C39.7085 9.5008 38.7924 8.59766 37.6297 8.59766H34.8814C33.7539 8.59766 32.8379 9.5008 32.8379 10.4039V11.9845C32.8379 12.6618 32.3622 13.3392 31.6752 13.565C30.7591 13.565 29.6316 14.0166 28.7155 14.2424C28.0285 14.6939 27.5352 14.9197 27.1124 15.3713C26.8833 16.0486 26.6367 16.5002 26.6367 17.1776V19.2097C26.6367 19.6613 26.901 19.8871 27.5528 20.1128V20.7902C26.901 21.016 26.6367 21.4676 26.6367 22.1449C26.6367 23.0307 27.1124 23.9512 28.2398 24.6286C28.7155 24.8544 29.4202 25.7575 29.4202 26.4349C29.4202 27.1123 28.7331 28.0154 28.2398 28.2412C27.1124 28.7101 26.6367 29.8217 26.6367 30.7249V60.3378C26.6367 63.2904 29.4202 65.9999 32.3798 65.9999H40.1665C43.4256 65.9999 45.9448 63.2904 45.9448 60.3378V30.7249C45.9272 29.8217 45.4692 28.6928 44.5531 28.2412ZM30.0544 15.8055C30.53 15.8055 30.5301 16.0139 30.5301 16.2571C30.5301 16.4829 30.53 16.9344 30.0544 16.9344C29.614 16.9344 29.4026 17.1602 29.4026 17.6118V18.2892C29.4026 18.7234 29.1383 18.7234 28.7155 18.7234C28.5041 18.7234 28.2398 18.7234 28.2398 18.2892V17.6118C28.2222 16.4829 29.1383 15.8055 30.0544 15.8055ZM30.5301 41.3543L31.0057 41.5801C31.0057 41.8232 30.5301 42.0316 30.5301 42.0316C29.843 42.0316 29.614 42.2574 29.614 42.5006V60.8068C29.614 61.0152 29.4026 61.0152 29.1383 61.0152C28.6979 61.0152 28.4865 61.0152 28.4865 60.8068V42.5006C28.4865 41.8059 29.4026 41.3543 30.5301 41.3543ZM42.2453 15.8055C43.1614 15.8055 44.0774 16.4829 44.0774 17.6118V18.0634C44.0774 18.515 43.637 18.7407 43.637 18.7407C43.1614 18.7407 42.95 18.515 42.95 18.0634V17.6118C42.95 16.9344 42.4743 16.7087 42.2453 16.7087C41.8049 16.7087 41.5582 16.5002 41.5582 16.2571C41.5406 15.8055 41.8049 15.8055 42.2453 15.8055ZM42.2453 41.3543C43.1614 41.3543 44.0774 41.8232 44.0774 42.4832V60.7894C44.0774 60.9978 43.637 60.9978 43.637 60.9978C43.1614 60.9978 42.95 60.9978 42.95 60.7894V42.4832C42.95 42.2401 42.4743 42.0143 42.2453 42.0143C41.8049 42.0143 41.5582 41.8059 41.5582 41.5627C41.5406 41.5801 41.8049 41.3543 42.2453 41.3543ZM44.3241 20.1128V20.5644H28.4865V20.1128H44.3241ZM34.8814 9.48343H37.6297C38.3696 9.48343 38.581 9.93501 38.581 10.3866H33.9653C33.9653 9.93501 34.441 9.48343 34.8814 9.48343ZM27.5352 17.1602C27.5352 16.9344 27.7994 16.4829 28.0108 16.0313C28.2222 15.8229 28.6979 15.3539 28.9269 15.1281C29.843 14.9023 31.0057 14.6766 31.9218 14.4508C33.3135 13.9992 33.9653 13.096 33.9653 11.9671V11.2897H38.581V11.9671C38.581 13.096 39.4971 13.9992 40.6245 14.4508C41.7873 14.6766 42.7033 14.9023 43.6194 15.1281C44.5355 15.5797 44.9759 16.5002 44.9759 17.1602V18.9665H27.5352V17.1602ZM44.9759 60.3378C44.9759 62.8215 42.9323 64.8536 40.1489 64.8536H32.3622C29.843 64.8536 27.5352 62.8215 27.5352 60.3378V30.7249C27.5352 30.0475 28.0108 29.5959 28.7155 29.3701C29.6316 28.6928 30.3186 27.5638 30.3186 26.4349C30.3186 25.306 29.6316 24.177 28.7155 23.7254C28.0285 23.4997 27.5352 22.8223 27.5352 22.1449C27.5352 21.6934 27.7994 21.6933 28.2222 21.6933H44.5531C44.7645 21.6933 44.9935 21.6934 44.9935 22.1449C44.9935 22.8223 44.7821 23.4997 44.0774 23.7254C42.95 24.177 42.4743 25.306 42.4743 26.4349C42.4743 27.5638 42.95 28.6928 44.0774 29.3701C44.7645 29.5959 44.9935 30.0475 44.9935 30.7249V60.3378H44.9759Z" fill="white"/>
</g>
</g>
</g>
</svg>
