<svg width="72" height="71" viewBox="0 0 72 71" fill="none" xmlns="http://www.w3.org/2000/svg">
<g id="Group">
<g id="Group_2">
<path id="Vector" fill-rule="evenodd" clip-rule="evenodd" d="M70.3723 25.8732C73.0427 36.5508 73.0427 50.6188 65.6328 59.3916C53.7839 73.4421 30.5282 73.4421 14.9655 66.2596C9.78383 63.9178 4.00087 60.545 1.04749 53.9741C-1.32228 48.8538 0.746848 42.2654 3.11662 37.2848C6.07 30.8537 11.1279 24.5451 15.8497 19.1451C22.0748 12.1198 34.808 1.14506 44.5877 0.113992C46.9575 -0.183095 49.3272 0.114015 51.3964 0.847995C63.2629 4.50042 68.0025 16.2091 70.3723 25.8732Z" fill="#A1BC51"/>
</g>
<g id="Group_3">
<g id="Group_4">
<path id="Vector_2" fill-rule="evenodd" clip-rule="evenodd" d="M47.0462 54.3061C48.4433 54.3061 49.5751 55.442 49.5751 56.8051C49.5751 58.1682 48.4433 59.077 47.0462 59.077C45.9143 59.077 44.7295 58.1682 44.7295 56.8051C44.7295 55.442 45.9143 54.3061 47.0462 54.3061ZM56.26 51.108H52.5816C51.1844 49.7449 49.3452 48.8362 47.0285 48.8362C44.977 48.8362 43.1378 49.7449 41.7407 51.108H24.2327C22.8709 49.7449 20.9963 48.8362 18.9449 48.8362C16.858 48.8362 15.0188 49.7449 13.3918 51.108H9.23587C8.31626 51.108 7.39663 50.1993 7.39663 49.0634C7.39663 48.1547 8.31626 47.2459 9.23587 47.2459H56.2423C57.4095 47.2459 58.1169 48.1547 58.1169 49.0634C58.1346 50.1993 57.4449 51.108 56.26 51.108ZM47.0462 60.8944C44.9947 60.8944 43.1555 59.077 43.1555 56.8051C43.1555 54.5333 44.9947 52.6983 47.0462 52.6983C49.3629 52.6983 51.2021 54.5158 51.2021 56.8051C51.2021 59.077 49.3629 60.8944 47.0462 60.8944ZM18.9626 60.8944C21.2793 60.8944 22.8886 59.077 22.8886 56.8051C22.8886 54.5333 21.2793 52.6983 18.9626 52.6983C16.6458 52.6983 14.8066 54.5158 14.8066 56.8051C14.8066 59.077 16.6458 60.8944 18.9626 60.8944ZM12.7198 16.7683H45.7021L53.5188 39.7314L43.5976 30.1896L46.1266 27.9178C46.8163 27.0091 46.8163 25.8731 46.1266 24.9644C44.2873 23.1469 33.022 32.6886 35.7632 35.4323C36.2053 35.6595 36.4529 35.8867 37.125 35.8867C37.6025 35.8867 38.0799 35.6595 38.522 35.4323L40.8388 32.9333L51.4497 43.4012H30.9176V40.675C30.9176 35.4323 22.3934 37.0401 18.4674 37.0401C18.2551 37.0401 18.0252 36.8129 18.0252 36.5857V25.4362C18.0252 24.5275 17.0703 23.6188 16.1506 23.6188C15.0188 23.6188 14.0992 24.51 14.0992 25.4362V36.5857C14.0992 38.8576 16.1506 40.9197 18.4674 40.9197H26.9915V43.4187H12.7021V16.7683H12.7198ZM57.6571 43.5935L48.6555 16.7508H53.7311C56.26 16.7508 56.26 12.8887 53.7311 12.8887H9.04134C8.12172 12.8887 7.20209 13.7974 7.20209 14.7062C7.20209 15.8421 8.12172 16.7508 9.04134 16.7508H9.73105V43.3663H9.25355C6.01721 43.3663 3.48828 45.8653 3.48828 49.0459C3.48828 52.2265 6.01721 54.7255 9.25355 54.7255H11.0928C11.0928 55.4071 10.8806 56.0886 10.8806 56.7702C10.8806 61.1042 14.559 64.7216 18.9626 64.7216C23.3307 64.7216 26.7793 61.0867 26.7793 56.7702C26.7793 56.0886 26.7793 55.4071 26.5671 54.7255H39.4593C39.2294 55.4071 39.2295 56.0886 39.2295 56.7702C39.2295 61.1042 42.678 64.7216 47.0462 64.7216C51.6796 64.7216 55.1282 61.0867 55.1282 56.7702C55.1282 56.0886 55.1282 55.4071 54.916 54.7255H56.2777C59.514 54.7255 62.043 52.2265 62.043 49.0459C62.0253 46.5644 60.2037 44.2925 57.6571 43.5935ZM19.1748 54.3061C20.342 54.3061 21.4915 55.442 21.4915 56.8051C21.4915 58.1682 20.3597 59.077 19.1748 59.077C17.813 59.077 16.6458 58.1682 16.6458 56.8051C16.6458 55.442 17.813 54.3061 19.1748 54.3061Z" fill="#7F973A"/>
</g>
</g>
<g id="Group_5">
<g id="Group_6">
<path id="Vector_3" fill-rule="evenodd" clip-rule="evenodd" d="M50.5647 58.9894C51.9618 58.9894 53.0937 60.1253 53.0937 61.4884C53.0937 62.8515 51.9618 63.7603 50.5647 63.7603C49.4329 63.7603 48.248 62.8515 48.248 61.4884C48.248 60.1428 49.4152 58.9894 50.5647 58.9894ZM59.7786 55.8088H56.1001C54.703 54.4457 52.8638 53.537 50.5647 53.537C48.5133 53.537 46.6741 54.4457 45.277 55.8088H27.7512C26.3895 54.4457 24.5149 53.537 22.4634 53.537C20.3766 53.537 18.5374 54.4457 16.9281 55.8088H12.7721C11.8525 55.8088 10.9329 54.9001 10.9329 53.7642C10.9329 52.8554 11.8525 51.9467 12.7721 51.9467H59.7786C60.9458 51.9467 61.6532 52.8554 61.6532 53.7642C61.6532 54.9001 60.9458 55.8088 59.7786 55.8088ZM50.5647 65.5777C48.5133 65.5777 46.6741 63.7603 46.6741 61.4884C46.6741 59.2166 48.5133 57.3816 50.5647 57.3816C52.8815 57.3816 54.7207 59.1991 54.7207 61.4884C54.703 63.7603 52.8815 65.5777 50.5647 65.5777ZM22.4634 65.5777C24.7802 65.5777 26.3895 63.7603 26.3895 61.4884C26.3895 59.2166 24.7802 57.3816 22.4634 57.3816C20.1467 57.3816 18.3075 59.1991 18.3075 61.4884C18.3252 63.7603 20.1467 65.5777 22.4634 65.5777ZM16.2207 21.4516H49.203L57.0198 44.4147L47.0985 34.8729L49.6274 32.6011C50.3171 31.6749 50.3171 30.5564 49.6274 29.6477C47.7882 27.8302 36.5229 37.372 39.2641 40.1157C39.7062 40.3428 39.9715 40.57 40.6258 40.57C41.1033 40.57 41.5808 40.3428 42.0229 40.1157L44.3397 37.6166L54.9506 48.0846H34.4185V45.3584C34.4185 40.1157 25.8943 41.7234 21.9683 41.7234C21.7561 41.7234 21.5262 41.4962 21.5262 41.2691V30.1195C21.5262 29.1933 20.5712 28.3021 19.6516 28.3021C18.5197 28.3021 17.6001 29.1933 17.6001 30.1195V41.2691C17.6001 43.5409 19.6516 45.603 21.9683 45.603H30.4924V48.102H16.203V21.4516H16.2207ZM61.1757 48.2943L52.1741 21.4691H57.2496C59.7786 21.4691 59.7786 17.6069 57.2496 17.6069H12.5599C11.6403 17.6069 10.7207 18.5157 10.7207 19.4244C10.7207 20.5603 11.6403 21.4691 12.5599 21.4691H13.2496V48.0846H12.7721C9.53579 48.0846 7.00684 50.5836 7.00684 53.7816C7.00684 56.9622 9.53579 59.4612 12.7721 59.4612H14.6113C14.6113 60.1603 14.3991 60.8244 14.3991 61.5059C14.3991 65.8399 18.0776 69.4573 22.4811 69.4573C26.8493 69.4573 30.2978 65.8224 30.2978 61.5059C30.2978 60.8244 30.2979 60.1428 30.0856 59.4612H42.9779C42.7657 60.1603 42.7657 60.8244 42.7657 61.5059C42.7657 65.8399 46.2143 69.4573 50.5824 69.4573C55.2159 69.4573 58.6644 65.8224 58.6644 61.5059C58.6644 60.8244 58.6645 60.1428 58.4522 59.4612H59.8139C63.0503 59.4612 65.5792 56.9622 65.5792 53.7816C65.5439 51.2651 63.7046 48.9758 61.1757 48.2943ZM22.6934 58.9894C23.8606 58.9894 25.0101 60.1253 25.0101 61.4884C25.0101 62.8515 23.8783 63.7603 22.6934 63.7603C21.3316 63.7603 20.1644 62.8515 20.1644 61.4884C20.1467 60.1428 21.3316 58.9894 22.6934 58.9894Z" fill="white"/>
</g>
</g>
</g>
</svg>
