<svg width="72" height="62" viewBox="0 0 72 62" fill="none" xmlns="http://www.w3.org/2000/svg">
<path fill-rule="evenodd" clip-rule="evenodd" d="M5.87193 55.8884C0.468249 51.6975 -0.358579 44.7275 0.113874 38.679C0.674911 35.8107 0.719221 35.2906 1.51649 31.9765C4.61695 20.3252 13.9331 3.5765 26.2759 0.663679C37.8658 -2.17484 48.7617 4.55733 57.3397 12.0177C57.3397 12.0177 57.3397 12.0178 57.5907 12.1961C65.6815 19.9388 74.658 32.9871 71.2623 44.9653C67.6746 56.8693 48.6731 60.7778 38.4121 61.61C28.7563 62.6206 13.4164 61.9816 5.87193 55.8884Z" fill="#A1BC51"/>
<g clip-path="url(#clip0_193_2308)">
<path d="M55.4341 47.8503C55.9339 47.2249 56.2077 46.449 56.2109 45.6484C56.2109 44.6974 55.8331 43.7853 55.1606 43.1128C54.4881 42.4403 53.576 42.0625 52.625 42.0625C51.674 42.0625 50.7619 42.4403 50.0894 43.1128C49.4169 43.7853 49.0391 44.6974 49.0391 45.6484C49.0423 46.449 49.3161 47.2249 49.8159 47.8503C49.028 48.1033 48.3386 48.5958 47.8438 49.259C47.3489 48.5958 46.6595 48.1033 45.8716 47.8503C46.3714 47.2249 46.6452 46.449 46.6484 45.6484C46.6484 44.6974 46.2706 43.7853 45.5981 43.1128C44.9256 42.4403 44.0135 42.0625 43.0625 42.0625C42.1115 42.0625 41.1994 42.4403 40.5269 43.1128C39.8544 43.7853 39.4766 44.6974 39.4766 45.6484C39.4798 46.449 39.7536 47.2249 40.2534 47.8503C39.4655 48.1033 38.7761 48.5958 38.2812 49.259C37.7864 48.5958 37.097 48.1033 36.3091 47.8503C36.8089 47.2249 37.0827 46.449 37.0859 45.6484C37.0859 44.6974 36.7081 43.7853 36.0356 43.1128C35.3631 42.4403 34.451 42.0625 33.5 42.0625C32.549 42.0625 31.6369 42.4403 30.9644 43.1128C30.2919 43.7853 29.9141 44.6974 29.9141 45.6484C29.9173 46.449 30.1911 47.2249 30.6909 47.8503C29.903 48.1033 29.2136 48.5958 28.7188 49.259C28.2239 48.5958 27.5345 48.1033 26.7466 47.8503C27.2464 47.2249 27.5202 46.449 27.5234 45.6484C27.5234 44.6974 27.1456 43.7853 26.4731 43.1128C25.8006 42.4403 24.8885 42.0625 23.9375 42.0625C22.9865 42.0625 22.0744 42.4403 21.4019 43.1128C20.7294 43.7853 20.3516 44.6974 20.3516 45.6484C20.3548 46.449 20.6286 47.2249 21.1284 47.8503C20.3405 48.1033 19.6511 48.5958 19.1562 49.259C18.6614 48.5958 17.972 48.1033 17.1841 47.8503C17.6839 47.2249 17.9577 46.449 17.9609 45.6484C17.9609 44.6974 17.5831 43.7853 16.9106 43.1128C16.2381 42.4403 15.326 42.0625 14.375 42.0625C13.424 42.0625 12.5119 42.4403 11.8394 43.1128C11.1669 43.7853 10.7891 44.6974 10.7891 45.6484C10.7923 46.449 11.0661 47.2249 11.5659 47.8503C10.7645 48.1057 10.0646 48.6087 9.56708 49.287C9.06952 49.9652 8.79986 50.7838 8.79688 51.625V56.4062C8.79685 56.5109 8.81744 56.6145 8.85748 56.7112C8.89752 56.8079 8.95621 56.8958 9.03021 56.9698C9.10422 57.0438 9.19207 57.1025 9.28877 57.1425C9.38546 57.1826 9.4891 57.2032 9.59375 57.2031H57.4062C57.5109 57.2032 57.6145 57.1826 57.7112 57.1425C57.8079 57.1025 57.8958 57.0438 57.9698 56.9698C58.0438 56.8958 58.1025 56.8079 58.1425 56.7112C58.1826 56.6145 58.2032 56.5109 58.2031 56.4062V51.625C58.2001 50.7838 57.9305 49.9652 57.4329 49.287C56.9354 48.6087 56.2355 48.1057 55.4341 47.8503ZM14.375 43.6562C14.769 43.6562 15.1542 43.7731 15.4818 43.992C15.8094 44.2109 16.0648 44.522 16.2155 44.8861C16.3663 45.2501 16.4058 45.6506 16.3289 46.0371C16.252 46.4235 16.0623 46.7785 15.7837 47.0571C15.5051 47.3357 15.1501 47.5255 14.7637 47.6023C14.3772 47.6792 13.9766 47.6398 13.6126 47.489C13.2486 47.3382 12.9375 47.0829 12.7186 46.7552C12.4997 46.4276 12.3828 46.0425 12.3828 45.6484C12.3834 45.1202 12.5934 44.6138 12.9669 44.2404C13.3404 43.8669 13.8468 43.6568 14.375 43.6562ZM18.3594 55.6094H10.3906V51.625C10.3913 50.9912 10.6434 50.3835 11.0916 49.9353C11.5398 49.4872 12.1474 49.2351 12.7812 49.2344H15.9688C16.6026 49.2351 17.2102 49.4872 17.6584 49.9353C18.1066 50.3835 18.3587 50.9912 18.3594 51.625V55.6094ZM23.9375 43.6562C24.3315 43.6562 24.7167 43.7731 25.0443 43.992C25.3719 44.2109 25.6273 44.522 25.778 44.8861C25.9288 45.2501 25.9683 45.6506 25.8914 46.0371C25.8145 46.4235 25.6248 46.7785 25.3462 47.0571C25.0676 47.3357 24.7126 47.5255 24.3262 47.6023C23.9397 47.6792 23.5391 47.6398 23.1751 47.489C22.8111 47.3382 22.5 47.0829 22.2811 46.7552C22.0622 46.4276 21.9453 46.0425 21.9453 45.6484C21.9459 45.1202 22.1559 44.6138 22.5294 44.2404C22.9029 43.8669 23.4093 43.6568 23.9375 43.6562ZM27.9219 55.6094H19.9531V51.625C19.9538 50.9912 20.2059 50.3835 20.6541 49.9353C21.1023 49.4872 21.7099 49.2351 22.3438 49.2344H25.5312C26.1651 49.2351 26.7727 49.4872 27.2209 49.9353C27.6691 50.3835 27.9212 50.9912 27.9219 51.625V55.6094ZM33.5 43.6562C33.894 43.6562 34.2792 43.7731 34.6068 43.992C34.9344 44.2109 35.1898 44.522 35.3405 44.8861C35.4913 45.2501 35.5308 45.6506 35.4539 46.0371C35.377 46.4235 35.1873 46.7785 34.9087 47.0571C34.6301 47.3357 34.2751 47.5255 33.8887 47.6023C33.5022 47.6792 33.1016 47.6398 32.7376 47.489C32.3736 47.3382 32.0625 47.0829 31.8436 46.7552C31.6247 46.4276 31.5078 46.0425 31.5078 45.6484C31.5084 45.1202 31.7184 44.6138 32.0919 44.2404C32.4654 43.8669 32.9718 43.6568 33.5 43.6562ZM37.4844 55.6094H29.5156V51.625C29.5163 50.9912 29.7684 50.3835 30.2166 49.9353C30.6648 49.4872 31.2724 49.2351 31.9062 49.2344H35.0938C35.7276 49.2351 36.3352 49.4872 36.7834 49.9353C37.2316 50.3835 37.4837 50.9912 37.4844 51.625V55.6094ZM43.0625 43.6562C43.4565 43.6562 43.8417 43.7731 44.1693 43.992C44.4969 44.2109 44.7523 44.522 44.903 44.8861C45.0538 45.2501 45.0933 45.6506 45.0164 46.0371C44.9395 46.4235 44.7498 46.7785 44.4712 47.0571C44.1926 47.3357 43.8376 47.5255 43.4512 47.6023C43.0647 47.6792 42.6642 47.6398 42.3001 47.489C41.9361 47.3382 41.625 47.0829 41.4061 46.7552C41.1872 46.4276 41.0703 46.0425 41.0703 45.6484C41.0709 45.1202 41.2809 44.6138 41.6544 44.2404C42.0279 43.8669 42.5343 43.6568 43.0625 43.6562ZM47.0469 55.6094H39.0781V51.625C39.0788 50.9912 39.3309 50.3835 39.7791 49.9353C40.2273 49.4872 40.8349 49.2351 41.4688 49.2344H44.6562C45.2901 49.2351 45.8977 49.4872 46.3459 49.9353C46.7941 50.3835 47.0462 50.9912 47.0469 51.625V55.6094ZM52.625 43.6562C53.019 43.6562 53.4042 43.7731 53.7318 43.992C54.0594 44.2109 54.3148 44.522 54.4655 44.8861C54.6163 45.2501 54.6558 45.6506 54.5789 46.0371C54.502 46.4235 54.3123 46.7785 54.0337 47.0571C53.7551 47.3357 53.4001 47.5255 53.0137 47.6023C52.6272 47.6792 52.2267 47.6398 51.8626 47.489C51.4986 47.3382 51.1875 47.0829 50.9686 46.7552C50.7497 46.4276 50.6328 46.0425 50.6328 45.6484C50.6334 45.1202 50.8434 44.6138 51.2169 44.2404C51.5904 43.8669 52.0968 43.6568 52.625 43.6562ZM56.6094 55.6094H48.6406V51.625C48.6413 50.9912 48.8934 50.3835 49.3416 49.9353C49.7898 49.4872 50.3974 49.2351 51.0312 49.2344H54.2188C54.8526 49.2351 55.4602 49.4872 55.9084 49.9353C56.3566 50.3835 56.6087 50.9912 56.6094 51.625V55.6094Z" fill="#7F973A"/>
<path d="M57.4062 7.79688H9.59375C9.4891 7.79685 9.38546 7.81744 9.28877 7.85748C9.19207 7.89752 9.10422 7.95621 9.03021 8.03021C8.95621 8.10422 8.89752 8.19207 8.85748 8.28877C8.81744 8.38546 8.79685 8.4891 8.79688 8.59375V33.2969C8.79685 33.4015 8.81744 33.5052 8.85748 33.6019C8.89752 33.6986 8.95621 33.7864 9.03021 33.8604C9.10422 33.9344 9.19207 33.9931 9.28877 34.0331C9.38546 34.0732 9.4891 34.0938 9.59375 34.0938H22.3438V40.4688H23.9375V29.3125H43.0625V40.4688H44.6562V34.0938H57.4062C57.5109 34.0938 57.6145 34.0732 57.7112 34.0331C57.8079 33.9931 57.8958 33.9344 57.9698 33.8604C58.0438 33.7864 58.1025 33.6986 58.1425 33.6019C58.1826 33.5052 58.2032 33.4015 58.2031 33.2969V8.59375C58.2032 8.4891 58.1826 8.38546 58.1425 8.28877C58.1025 8.19207 58.0438 8.10422 57.9698 8.03021C57.8958 7.95621 57.8079 7.89752 57.7112 7.85748C57.6145 7.81744 57.5109 7.79685 57.4062 7.79688ZM23.9375 22.9375C23.7799 22.9375 23.6258 22.8908 23.4948 22.8032C23.3637 22.7156 23.2616 22.5912 23.2013 22.4456C23.141 22.3 23.1252 22.1397 23.1559 21.9852C23.1867 21.8306 23.2626 21.6886 23.374 21.5771C23.4855 21.4657 23.6275 21.3898 23.782 21.3591C23.9366 21.3283 24.0968 21.3441 24.2425 21.4044C24.3881 21.4647 24.5125 21.5669 24.6001 21.6979C24.6876 21.8289 24.7344 21.983 24.7344 22.1406C24.7342 22.3519 24.6501 22.5545 24.5007 22.7039C24.3513 22.8533 24.1488 22.9373 23.9375 22.9375ZM38.2812 27.7188H28.7188V23.7344C28.7194 23.1006 28.9715 22.4929 29.4197 22.0447C29.8679 21.5965 30.4756 21.3444 31.1094 21.3438H35.8906C36.5244 21.3444 37.1321 21.5965 37.5803 22.0447C38.0285 22.4929 38.2806 23.1006 38.2812 23.7344V27.7188ZM31.1094 17.3594C31.1094 16.8866 31.2496 16.4244 31.5123 16.0312C31.775 15.6381 32.1483 15.3317 32.5851 15.1507C33.022 14.9698 33.5027 14.9224 33.9664 15.0147C34.4301 15.1069 34.8561 15.3346 35.1904 15.6689C35.5248 16.0033 35.7524 16.4293 35.8447 16.893C35.9369 17.3567 35.8896 17.8374 35.7086 18.2742C35.5277 18.7111 35.2213 19.0844 34.8282 19.3471C34.435 19.6098 33.9728 19.75 33.5 19.75C32.8662 19.7493 32.2585 19.4972 31.8103 19.049C31.3622 18.6009 31.1101 17.9932 31.1094 17.3594ZM42.2656 22.1406C42.2656 21.983 42.3124 21.8289 42.3999 21.6979C42.4875 21.5669 42.6119 21.4647 42.7575 21.4044C42.9032 21.3441 43.0634 21.3283 43.218 21.3591C43.3725 21.3898 43.5145 21.4657 43.626 21.5771C43.7374 21.6886 43.8133 21.8306 43.8441 21.9852C43.8748 22.1397 43.859 22.3 43.7987 22.4456C43.7384 22.5912 43.6363 22.7156 43.5052 22.8032C43.3742 22.8908 43.2201 22.9375 43.0625 22.9375C42.8512 22.9373 42.6487 22.8533 42.4993 22.7039C42.3499 22.5545 42.2658 22.3519 42.2656 22.1406ZM56.6094 10.9844H38.2812V12.5781H56.6094V32.5H44.6562V28.5156C44.6563 28.411 44.6357 28.3073 44.5956 28.2106C44.5556 28.1139 44.4969 28.0261 44.4229 27.9521C44.3489 27.8781 44.2611 27.8194 44.1644 27.7794C44.0677 27.7393 43.964 27.7187 43.8594 27.7188H43.4852L43.8353 26.3184C43.8514 26.2552 43.8595 26.1902 43.8594 26.125V24.3844C44.3911 24.1964 44.8392 23.8266 45.1246 23.3401C45.41 22.8537 45.5142 22.282 45.4189 21.7262C45.3235 21.1704 45.0347 20.6661 44.6036 20.3026C44.1724 19.9391 43.6266 19.7397 43.0626 19.7397C42.4987 19.7397 41.9529 19.939 41.5217 20.3025C41.0905 20.666 40.8017 21.1702 40.7063 21.7261C40.6109 22.2819 40.7151 22.8536 41.0004 23.34C41.2858 23.8265 41.7339 24.1964 42.2656 24.3844V26.027L41.8429 27.7188H39.875V23.7344C39.8731 22.8033 39.5452 21.9023 38.9483 21.1877C38.3514 20.4731 37.5232 19.9901 36.6073 19.8225C37.1712 19.125 37.4806 18.2562 37.4844 17.3594C37.4844 16.3027 37.0646 15.2892 36.3174 14.542C35.5702 13.7948 34.5567 13.375 33.5 13.375C32.4433 13.375 31.4298 13.7948 30.6826 14.542C29.9354 15.2892 29.5156 16.3027 29.5156 17.3594C29.5194 18.2562 29.8288 19.125 30.3927 19.8225C29.4768 19.9901 28.6486 20.4731 28.0517 21.1877C27.4548 21.9023 27.1269 22.8033 27.125 23.7344V27.7188H25.1571L24.7344 26.027V24.3844C25.2661 24.1964 25.7142 23.8266 25.9996 23.3401C26.285 22.8537 26.3892 22.282 26.2939 21.7262C26.1985 21.1704 25.9097 20.6661 25.4786 20.3026C25.0474 19.9391 24.5016 19.7397 23.9376 19.7397C23.3737 19.7397 22.8279 19.939 22.3967 20.3025C21.9655 20.666 21.6767 21.1702 21.5813 21.7261C21.4859 22.2819 21.5901 22.8536 21.8754 23.34C22.1608 23.8265 22.6089 24.1964 23.1406 24.3844V26.125C23.1405 26.1902 23.1486 26.2552 23.1647 26.3184L23.5148 27.7188H23.1406C23.036 27.7187 22.9323 27.7393 22.8356 27.7794C22.7389 27.8194 22.6511 27.8781 22.5771 27.9521C22.5031 28.0261 22.4444 28.1139 22.4044 28.2106C22.3643 28.3073 22.3437 28.411 22.3438 28.5156V32.5H10.3906V12.5781H28.7188V10.9844H10.3906V9.39062H56.6094V10.9844Z" fill="#7F973A"/>
</g>
<g clip-path="url(#clip1_193_2308)">
<mask id="path-4-inside-1_193_2308" fill="white">
<path d="M58.4341 49.8503C58.9339 49.2249 59.2077 48.449 59.2109 47.6484C59.2109 46.6974 58.8331 45.7853 58.1606 45.1128C57.4881 44.4403 56.576 44.0625 55.625 44.0625C54.674 44.0625 53.7619 44.4403 53.0894 45.1128C52.4169 45.7853 52.0391 46.6974 52.0391 47.6484C52.0423 48.449 52.3161 49.2249 52.8159 49.8503C52.028 50.1033 51.3386 50.5958 50.8438 51.259C50.3489 50.5958 49.6595 50.1033 48.8716 49.8503C49.3714 49.2249 49.6452 48.449 49.6484 47.6484C49.6484 46.6974 49.2706 45.7853 48.5981 45.1128C47.9256 44.4403 47.0135 44.0625 46.0625 44.0625C45.1115 44.0625 44.1994 44.4403 43.5269 45.1128C42.8544 45.7853 42.4766 46.6974 42.4766 47.6484C42.4798 48.449 42.7536 49.2249 43.2534 49.8503C42.4655 50.1033 41.7761 50.5958 41.2812 51.259C40.7864 50.5958 40.097 50.1033 39.3091 49.8503C39.8089 49.2249 40.0827 48.449 40.0859 47.6484C40.0859 46.6974 39.7081 45.7853 39.0356 45.1128C38.3631 44.4403 37.451 44.0625 36.5 44.0625C35.549 44.0625 34.6369 44.4403 33.9644 45.1128C33.2919 45.7853 32.9141 46.6974 32.9141 47.6484C32.9173 48.449 33.1911 49.2249 33.6909 49.8503C32.903 50.1033 32.2136 50.5958 31.7188 51.259C31.2239 50.5958 30.5345 50.1033 29.7466 49.8503C30.2464 49.2249 30.5202 48.449 30.5234 47.6484C30.5234 46.6974 30.1456 45.7853 29.4731 45.1128C28.8006 44.4403 27.8885 44.0625 26.9375 44.0625C25.9865 44.0625 25.0744 44.4403 24.4019 45.1128C23.7294 45.7853 23.3516 46.6974 23.3516 47.6484C23.3548 48.449 23.6286 49.2249 24.1284 49.8503C23.3405 50.1033 22.6511 50.5958 22.1562 51.259C21.6614 50.5958 20.972 50.1033 20.1841 49.8503C20.6839 49.2249 20.9577 48.449 20.9609 47.6484C20.9609 46.6974 20.5831 45.7853 19.9106 45.1128C19.2381 44.4403 18.326 44.0625 17.375 44.0625C16.424 44.0625 15.5119 44.4403 14.8394 45.1128C14.1669 45.7853 13.7891 46.6974 13.7891 47.6484C13.7923 48.449 14.0661 49.2249 14.5659 49.8503C13.7645 50.1057 13.0646 50.6087 12.5671 51.287C12.0695 51.9652 11.7999 52.7838 11.7969 53.625V58.4062C11.7968 58.5109 11.8174 58.6145 11.8575 58.7112C11.8975 58.8079 11.9562 58.8958 12.0302 58.9698C12.1042 59.0438 12.1921 59.1025 12.2888 59.1425C12.3855 59.1826 12.4891 59.2032 12.5938 59.2031H60.4062C60.5109 59.2032 60.6145 59.1826 60.7112 59.1425C60.8079 59.1025 60.8958 59.0438 60.9698 58.9698C61.0438 58.8958 61.1025 58.8079 61.1425 58.7112C61.1826 58.6145 61.2032 58.5109 61.2031 58.4062V53.625C61.2001 52.7838 60.9305 51.9652 60.4329 51.287C59.9354 50.6087 59.2355 50.1057 58.4341 49.8503ZM17.375 45.6562C17.769 45.6562 18.1542 45.7731 18.4818 45.992C18.8094 46.2109 19.0648 46.522 19.2155 46.8861C19.3663 47.2501 19.4058 47.6506 19.3289 48.0371C19.252 48.4235 19.0623 48.7785 18.7837 49.0571C18.5051 49.3357 18.1501 49.5255 17.7637 49.6023C17.3772 49.6792 16.9766 49.6398 16.6126 49.489C16.2486 49.3382 15.9375 49.0829 15.7186 48.7552C15.4997 48.4276 15.3828 48.0425 15.3828 47.6484C15.3834 47.1202 15.5934 46.6138 15.9669 46.2404C16.3404 45.8669 16.8468 45.6568 17.375 45.6562ZM21.3594 57.6094H13.3906V53.625C13.3913 52.9912 13.6434 52.3835 14.0916 51.9353C14.5398 51.4872 15.1474 51.2351 15.7812 51.2344H18.9688C19.6026 51.2351 20.2102 51.4872 20.6584 51.9353C21.1066 52.3835 21.3587 52.9912 21.3594 53.625V57.6094ZM26.9375 45.6562C27.3315 45.6562 27.7167 45.7731 28.0443 45.992C28.3719 46.2109 28.6273 46.522 28.778 46.8861C28.9288 47.2501 28.9683 47.6506 28.8914 48.0371C28.8145 48.4235 28.6248 48.7785 28.3462 49.0571C28.0676 49.3357 27.7126 49.5255 27.3262 49.6023C26.9397 49.6792 26.5391 49.6398 26.1751 49.489C25.8111 49.3382 25.5 49.0829 25.2811 48.7552C25.0622 48.4276 24.9453 48.0425 24.9453 47.6484C24.9459 47.1202 25.1559 46.6138 25.5294 46.2404C25.9029 45.8669 26.4093 45.6568 26.9375 45.6562ZM30.9219 57.6094H22.9531V53.625C22.9538 52.9912 23.2059 52.3835 23.6541 51.9353C24.1023 51.4872 24.7099 51.2351 25.3438 51.2344H28.5312C29.1651 51.2351 29.7727 51.4872 30.2209 51.9353C30.6691 52.3835 30.9212 52.9912 30.9219 53.625V57.6094ZM36.5 45.6562C36.894 45.6562 37.2792 45.7731 37.6068 45.992C37.9344 46.2109 38.1898 46.522 38.3405 46.8861C38.4913 47.2501 38.5308 47.6506 38.4539 48.0371C38.377 48.4235 38.1873 48.7785 37.9087 49.0571C37.6301 49.3357 37.2751 49.5255 36.8887 49.6023C36.5022 49.6792 36.1016 49.6398 35.7376 49.489C35.3736 49.3382 35.0625 49.0829 34.8436 48.7552C34.6247 48.4276 34.5078 48.0425 34.5078 47.6484C34.5084 47.1202 34.7184 46.6138 35.0919 46.2404C35.4654 45.8669 35.9718 45.6568 36.5 45.6562ZM40.4844 57.6094H32.5156V53.625C32.5163 52.9912 32.7684 52.3835 33.2166 51.9353C33.6648 51.4872 34.2724 51.2351 34.9062 51.2344H38.0938C38.7276 51.2351 39.3352 51.4872 39.7834 51.9353C40.2316 52.3835 40.4837 52.9912 40.4844 53.625V57.6094ZM46.0625 45.6562C46.4565 45.6562 46.8417 45.7731 47.1693 45.992C47.4969 46.2109 47.7523 46.522 47.903 46.8861C48.0538 47.2501 48.0933 47.6506 48.0164 48.0371C47.9395 48.4235 47.7498 48.7785 47.4712 49.0571C47.1926 49.3357 46.8376 49.5255 46.4512 49.6023C46.0647 49.6792 45.6642 49.6398 45.3001 49.489C44.9361 49.3382 44.625 49.0829 44.4061 48.7552C44.1872 48.4276 44.0703 48.0425 44.0703 47.6484C44.0709 47.1202 44.2809 46.6138 44.6544 46.2404C45.0279 45.8669 45.5343 45.6568 46.0625 45.6562ZM50.0469 57.6094H42.0781V53.625C42.0788 52.9912 42.3309 52.3835 42.7791 51.9353C43.2273 51.4872 43.8349 51.2351 44.4688 51.2344H47.6562C48.2901 51.2351 48.8977 51.4872 49.3459 51.9353C49.7941 52.3835 50.0462 52.9912 50.0469 53.625V57.6094ZM55.625 45.6562C56.019 45.6562 56.4042 45.7731 56.7318 45.992C57.0594 46.2109 57.3148 46.522 57.4655 46.8861C57.6163 47.2501 57.6558 47.6506 57.5789 48.0371C57.502 48.4235 57.3123 48.7785 57.0337 49.0571C56.7551 49.3357 56.4001 49.5255 56.0137 49.6023C55.6272 49.6792 55.2267 49.6398 54.8626 49.489C54.4986 49.3382 54.1875 49.0829 53.9686 48.7552C53.7497 48.4276 53.6328 48.0425 53.6328 47.6484C53.6334 47.1202 53.8434 46.6138 54.2169 46.2404C54.5904 45.8669 55.0968 45.6568 55.625 45.6562ZM59.6094 57.6094H51.6406V53.625C51.6413 52.9912 51.8934 52.3835 52.3416 51.9353C52.7898 51.4872 53.3974 51.2351 54.0312 51.2344H57.2188C57.8526 51.2351 58.4602 51.4872 58.9084 51.9353C59.3566 52.3835 59.6087 52.9912 59.6094 53.625V57.6094Z"/>
</mask>
<path d="M58.4341 49.8503C58.9339 49.2249 59.2077 48.449 59.2109 47.6484C59.2109 46.6974 58.8331 45.7853 58.1606 45.1128C57.4881 44.4403 56.576 44.0625 55.625 44.0625C54.674 44.0625 53.7619 44.4403 53.0894 45.1128C52.4169 45.7853 52.0391 46.6974 52.0391 47.6484C52.0423 48.449 52.3161 49.2249 52.8159 49.8503C52.028 50.1033 51.3386 50.5958 50.8438 51.259C50.3489 50.5958 49.6595 50.1033 48.8716 49.8503C49.3714 49.2249 49.6452 48.449 49.6484 47.6484C49.6484 46.6974 49.2706 45.7853 48.5981 45.1128C47.9256 44.4403 47.0135 44.0625 46.0625 44.0625C45.1115 44.0625 44.1994 44.4403 43.5269 45.1128C42.8544 45.7853 42.4766 46.6974 42.4766 47.6484C42.4798 48.449 42.7536 49.2249 43.2534 49.8503C42.4655 50.1033 41.7761 50.5958 41.2812 51.259C40.7864 50.5958 40.097 50.1033 39.3091 49.8503C39.8089 49.2249 40.0827 48.449 40.0859 47.6484C40.0859 46.6974 39.7081 45.7853 39.0356 45.1128C38.3631 44.4403 37.451 44.0625 36.5 44.0625C35.549 44.0625 34.6369 44.4403 33.9644 45.1128C33.2919 45.7853 32.9141 46.6974 32.9141 47.6484C32.9173 48.449 33.1911 49.2249 33.6909 49.8503C32.903 50.1033 32.2136 50.5958 31.7188 51.259C31.2239 50.5958 30.5345 50.1033 29.7466 49.8503C30.2464 49.2249 30.5202 48.449 30.5234 47.6484C30.5234 46.6974 30.1456 45.7853 29.4731 45.1128C28.8006 44.4403 27.8885 44.0625 26.9375 44.0625C25.9865 44.0625 25.0744 44.4403 24.4019 45.1128C23.7294 45.7853 23.3516 46.6974 23.3516 47.6484C23.3548 48.449 23.6286 49.2249 24.1284 49.8503C23.3405 50.1033 22.6511 50.5958 22.1562 51.259C21.6614 50.5958 20.972 50.1033 20.1841 49.8503C20.6839 49.2249 20.9577 48.449 20.9609 47.6484C20.9609 46.6974 20.5831 45.7853 19.9106 45.1128C19.2381 44.4403 18.326 44.0625 17.375 44.0625C16.424 44.0625 15.5119 44.4403 14.8394 45.1128C14.1669 45.7853 13.7891 46.6974 13.7891 47.6484C13.7923 48.449 14.0661 49.2249 14.5659 49.8503C13.7645 50.1057 13.0646 50.6087 12.5671 51.287C12.0695 51.9652 11.7999 52.7838 11.7969 53.625V58.4062C11.7968 58.5109 11.8174 58.6145 11.8575 58.7112C11.8975 58.8079 11.9562 58.8958 12.0302 58.9698C12.1042 59.0438 12.1921 59.1025 12.2888 59.1425C12.3855 59.1826 12.4891 59.2032 12.5938 59.2031H60.4062C60.5109 59.2032 60.6145 59.1826 60.7112 59.1425C60.8079 59.1025 60.8958 59.0438 60.9698 58.9698C61.0438 58.8958 61.1025 58.8079 61.1425 58.7112C61.1826 58.6145 61.2032 58.5109 61.2031 58.4062V53.625C61.2001 52.7838 60.9305 51.9652 60.4329 51.287C59.9354 50.6087 59.2355 50.1057 58.4341 49.8503ZM17.375 45.6562C17.769 45.6562 18.1542 45.7731 18.4818 45.992C18.8094 46.2109 19.0648 46.522 19.2155 46.8861C19.3663 47.2501 19.4058 47.6506 19.3289 48.0371C19.252 48.4235 19.0623 48.7785 18.7837 49.0571C18.5051 49.3357 18.1501 49.5255 17.7637 49.6023C17.3772 49.6792 16.9766 49.6398 16.6126 49.489C16.2486 49.3382 15.9375 49.0829 15.7186 48.7552C15.4997 48.4276 15.3828 48.0425 15.3828 47.6484C15.3834 47.1202 15.5934 46.6138 15.9669 46.2404C16.3404 45.8669 16.8468 45.6568 17.375 45.6562ZM21.3594 57.6094H13.3906V53.625C13.3913 52.9912 13.6434 52.3835 14.0916 51.9353C14.5398 51.4872 15.1474 51.2351 15.7812 51.2344H18.9688C19.6026 51.2351 20.2102 51.4872 20.6584 51.9353C21.1066 52.3835 21.3587 52.9912 21.3594 53.625V57.6094ZM26.9375 45.6562C27.3315 45.6562 27.7167 45.7731 28.0443 45.992C28.3719 46.2109 28.6273 46.522 28.778 46.8861C28.9288 47.2501 28.9683 47.6506 28.8914 48.0371C28.8145 48.4235 28.6248 48.7785 28.3462 49.0571C28.0676 49.3357 27.7126 49.5255 27.3262 49.6023C26.9397 49.6792 26.5391 49.6398 26.1751 49.489C25.8111 49.3382 25.5 49.0829 25.2811 48.7552C25.0622 48.4276 24.9453 48.0425 24.9453 47.6484C24.9459 47.1202 25.1559 46.6138 25.5294 46.2404C25.9029 45.8669 26.4093 45.6568 26.9375 45.6562ZM30.9219 57.6094H22.9531V53.625C22.9538 52.9912 23.2059 52.3835 23.6541 51.9353C24.1023 51.4872 24.7099 51.2351 25.3438 51.2344H28.5312C29.1651 51.2351 29.7727 51.4872 30.2209 51.9353C30.6691 52.3835 30.9212 52.9912 30.9219 53.625V57.6094ZM36.5 45.6562C36.894 45.6562 37.2792 45.7731 37.6068 45.992C37.9344 46.2109 38.1898 46.522 38.3405 46.8861C38.4913 47.2501 38.5308 47.6506 38.4539 48.0371C38.377 48.4235 38.1873 48.7785 37.9087 49.0571C37.6301 49.3357 37.2751 49.5255 36.8887 49.6023C36.5022 49.6792 36.1016 49.6398 35.7376 49.489C35.3736 49.3382 35.0625 49.0829 34.8436 48.7552C34.6247 48.4276 34.5078 48.0425 34.5078 47.6484C34.5084 47.1202 34.7184 46.6138 35.0919 46.2404C35.4654 45.8669 35.9718 45.6568 36.5 45.6562ZM40.4844 57.6094H32.5156V53.625C32.5163 52.9912 32.7684 52.3835 33.2166 51.9353C33.6648 51.4872 34.2724 51.2351 34.9062 51.2344H38.0938C38.7276 51.2351 39.3352 51.4872 39.7834 51.9353C40.2316 52.3835 40.4837 52.9912 40.4844 53.625V57.6094ZM46.0625 45.6562C46.4565 45.6562 46.8417 45.7731 47.1693 45.992C47.4969 46.2109 47.7523 46.522 47.903 46.8861C48.0538 47.2501 48.0933 47.6506 48.0164 48.0371C47.9395 48.4235 47.7498 48.7785 47.4712 49.0571C47.1926 49.3357 46.8376 49.5255 46.4512 49.6023C46.0647 49.6792 45.6642 49.6398 45.3001 49.489C44.9361 49.3382 44.625 49.0829 44.4061 48.7552C44.1872 48.4276 44.0703 48.0425 44.0703 47.6484C44.0709 47.1202 44.2809 46.6138 44.6544 46.2404C45.0279 45.8669 45.5343 45.6568 46.0625 45.6562ZM50.0469 57.6094H42.0781V53.625C42.0788 52.9912 42.3309 52.3835 42.7791 51.9353C43.2273 51.4872 43.8349 51.2351 44.4688 51.2344H47.6562C48.2901 51.2351 48.8977 51.4872 49.3459 51.9353C49.7941 52.3835 50.0462 52.9912 50.0469 53.625V57.6094ZM55.625 45.6562C56.019 45.6562 56.4042 45.7731 56.7318 45.992C57.0594 46.2109 57.3148 46.522 57.4655 46.8861C57.6163 47.2501 57.6558 47.6506 57.5789 48.0371C57.502 48.4235 57.3123 48.7785 57.0337 49.0571C56.7551 49.3357 56.4001 49.5255 56.0137 49.6023C55.6272 49.6792 55.2267 49.6398 54.8626 49.489C54.4986 49.3382 54.1875 49.0829 53.9686 48.7552C53.7497 48.4276 53.6328 48.0425 53.6328 47.6484C53.6334 47.1202 53.8434 46.6138 54.2169 46.2404C54.5904 45.8669 55.0968 45.6568 55.625 45.6562ZM59.6094 57.6094H51.6406V53.625C51.6413 52.9912 51.8934 52.3835 52.3416 51.9353C52.7898 51.4872 53.3974 51.2351 54.0312 51.2344H57.2188C57.8526 51.2351 58.4602 51.4872 58.9084 51.9353C59.3566 52.3835 59.6087 52.9912 59.6094 53.625V57.6094Z" fill="white" stroke="white" stroke-width="2" mask="url(#path-4-inside-1_193_2308)"/>
<mask id="path-5-inside-2_193_2308" fill="white">
<path d="M60.4062 9.79688H12.5938C12.4891 9.79685 12.3855 9.81744 12.2888 9.85748C12.1921 9.89752 12.1042 9.95621 12.0302 10.0302C11.9562 10.1042 11.8975 10.1921 11.8575 10.2888C11.8174 10.3855 11.7968 10.4891 11.7969 10.5938V35.2969C11.7968 35.4015 11.8174 35.5052 11.8575 35.6019C11.8975 35.6986 11.9562 35.7864 12.0302 35.8604C12.1042 35.9344 12.1921 35.9931 12.2888 36.0331C12.3855 36.0732 12.4891 36.0938 12.5938 36.0938H25.3438V42.4688H26.9375V31.3125H46.0625V42.4688H47.6562V36.0938H60.4062C60.5109 36.0938 60.6145 36.0732 60.7112 36.0331C60.8079 35.9931 60.8958 35.9344 60.9698 35.8604C61.0438 35.7864 61.1025 35.6986 61.1425 35.6019C61.1826 35.5052 61.2032 35.4015 61.2031 35.2969V10.5938C61.2032 10.4891 61.1826 10.3855 61.1425 10.2888C61.1025 10.1921 61.0438 10.1042 60.9698 10.0302C60.8958 9.95621 60.8079 9.89752 60.7112 9.85748C60.6145 9.81744 60.5109 9.79685 60.4062 9.79688ZM26.9375 24.9375C26.7799 24.9375 26.6258 24.8908 26.4948 24.8032C26.3637 24.7156 26.2616 24.5912 26.2013 24.4456C26.141 24.3 26.1252 24.1397 26.1559 23.9852C26.1867 23.8306 26.2626 23.6886 26.374 23.5771C26.4855 23.4657 26.6275 23.3898 26.782 23.3591C26.9366 23.3283 27.0968 23.3441 27.2425 23.4044C27.3881 23.4647 27.5125 23.5669 27.6001 23.6979C27.6876 23.8289 27.7344 23.983 27.7344 24.1406C27.7342 24.3519 27.6501 24.5545 27.5007 24.7039C27.3513 24.8533 27.1488 24.9373 26.9375 24.9375ZM41.2812 29.7188H31.7188V25.7344C31.7194 25.1006 31.9715 24.4929 32.4197 24.0447C32.8679 23.5965 33.4756 23.3444 34.1094 23.3438H38.8906C39.5244 23.3444 40.1321 23.5965 40.5803 24.0447C41.0285 24.4929 41.2806 25.1006 41.2812 25.7344V29.7188ZM34.1094 19.3594C34.1094 18.8866 34.2496 18.4244 34.5123 18.0312C34.775 17.6381 35.1483 17.3317 35.5851 17.1507C36.022 16.9698 36.5027 16.9224 36.9664 17.0147C37.4301 17.1069 37.8561 17.3346 38.1904 17.6689C38.5248 18.0033 38.7524 18.4293 38.8447 18.893C38.9369 19.3567 38.8896 19.8374 38.7086 20.2742C38.5277 20.7111 38.2213 21.0844 37.8282 21.3471C37.435 21.6098 36.9728 21.75 36.5 21.75C35.8662 21.7493 35.2585 21.4972 34.8103 21.049C34.3622 20.6009 34.1101 19.9932 34.1094 19.3594ZM45.2656 24.1406C45.2656 23.983 45.3124 23.8289 45.3999 23.6979C45.4875 23.5669 45.6119 23.4647 45.7575 23.4044C45.9032 23.3441 46.0634 23.3283 46.218 23.3591C46.3725 23.3898 46.5145 23.4657 46.626 23.5771C46.7374 23.6886 46.8133 23.8306 46.8441 23.9852C46.8748 24.1397 46.859 24.3 46.7987 24.4456C46.7384 24.5912 46.6363 24.7156 46.5052 24.8032C46.3742 24.8908 46.2201 24.9375 46.0625 24.9375C45.8512 24.9373 45.6487 24.8533 45.4993 24.7039C45.3499 24.5545 45.2658 24.3519 45.2656 24.1406ZM59.6094 12.9844H41.2812V14.5781H59.6094V34.5H47.6562V30.5156C47.6563 30.411 47.6357 30.3073 47.5956 30.2106C47.5556 30.1139 47.4969 30.0261 47.4229 29.9521C47.3489 29.8781 47.2611 29.8194 47.1644 29.7794C47.0677 29.7393 46.964 29.7187 46.8594 29.7188H46.4852L46.8353 28.3184C46.8514 28.2552 46.8595 28.1902 46.8594 28.125V26.3844C47.3911 26.1964 47.8392 25.8266 48.1246 25.3401C48.41 24.8537 48.5142 24.282 48.4189 23.7262C48.3235 23.1704 48.0347 22.6661 47.6036 22.3026C47.1724 21.9391 46.6266 21.7397 46.0626 21.7397C45.4987 21.7397 44.9529 21.939 44.5217 22.3025C44.0905 22.666 43.8017 23.1702 43.7063 23.7261C43.6109 24.2819 43.7151 24.8536 44.0004 25.34C44.2858 25.8265 44.7339 26.1964 45.2656 26.3844V28.027L44.8429 29.7188H42.875V25.7344C42.8731 24.8033 42.5452 23.9023 41.9483 23.1877C41.3514 22.4731 40.5232 21.9901 39.6073 21.8225C40.1712 21.125 40.4806 20.2562 40.4844 19.3594C40.4844 18.3027 40.0646 17.2892 39.3174 16.542C38.5702 15.7948 37.5567 15.375 36.5 15.375C35.4433 15.375 34.4298 15.7948 33.6826 16.542C32.9354 17.2892 32.5156 18.3027 32.5156 19.3594C32.5194 20.2562 32.8288 21.125 33.3927 21.8225C32.4768 21.9901 31.6486 22.4731 31.0517 23.1877C30.4548 23.9023 30.1269 24.8033 30.125 25.7344V29.7188H28.1571L27.7344 28.027V26.3844C28.2661 26.1964 28.7142 25.8266 28.9996 25.3401C29.285 24.8537 29.3892 24.282 29.2939 23.7262C29.1985 23.1704 28.9097 22.6661 28.4786 22.3026C28.0474 21.9391 27.5016 21.7397 26.9376 21.7397C26.3737 21.7397 25.8279 21.939 25.3967 22.3025C24.9655 22.666 24.6767 23.1702 24.5813 23.7261C24.4859 24.2819 24.5901 24.8536 24.8754 25.34C25.1608 25.8265 25.6089 26.1964 26.1406 26.3844V28.125C26.1405 28.1902 26.1486 28.2552 26.1647 28.3184L26.5148 29.7188H26.1406C26.036 29.7187 25.9323 29.7393 25.8356 29.7794C25.7389 29.8194 25.6511 29.8781 25.5771 29.9521C25.5031 30.0261 25.4444 30.1139 25.4044 30.2106C25.3643 30.3073 25.3437 30.411 25.3438 30.5156V34.5H13.3906V14.5781H31.7188V12.9844H13.3906V11.3906H59.6094V12.9844Z"/>
</mask>
<path d="M60.4062 9.79688H12.5938C12.4891 9.79685 12.3855 9.81744 12.2888 9.85748C12.1921 9.89752 12.1042 9.95621 12.0302 10.0302C11.9562 10.1042 11.8975 10.1921 11.8575 10.2888C11.8174 10.3855 11.7968 10.4891 11.7969 10.5938V35.2969C11.7968 35.4015 11.8174 35.5052 11.8575 35.6019C11.8975 35.6986 11.9562 35.7864 12.0302 35.8604C12.1042 35.9344 12.1921 35.9931 12.2888 36.0331C12.3855 36.0732 12.4891 36.0938 12.5938 36.0938H25.3438V42.4688H26.9375V31.3125H46.0625V42.4688H47.6562V36.0938H60.4062C60.5109 36.0938 60.6145 36.0732 60.7112 36.0331C60.8079 35.9931 60.8958 35.9344 60.9698 35.8604C61.0438 35.7864 61.1025 35.6986 61.1425 35.6019C61.1826 35.5052 61.2032 35.4015 61.2031 35.2969V10.5938C61.2032 10.4891 61.1826 10.3855 61.1425 10.2888C61.1025 10.1921 61.0438 10.1042 60.9698 10.0302C60.8958 9.95621 60.8079 9.89752 60.7112 9.85748C60.6145 9.81744 60.5109 9.79685 60.4062 9.79688ZM26.9375 24.9375C26.7799 24.9375 26.6258 24.8908 26.4948 24.8032C26.3637 24.7156 26.2616 24.5912 26.2013 24.4456C26.141 24.3 26.1252 24.1397 26.1559 23.9852C26.1867 23.8306 26.2626 23.6886 26.374 23.5771C26.4855 23.4657 26.6275 23.3898 26.782 23.3591C26.9366 23.3283 27.0968 23.3441 27.2425 23.4044C27.3881 23.4647 27.5125 23.5669 27.6001 23.6979C27.6876 23.8289 27.7344 23.983 27.7344 24.1406C27.7342 24.3519 27.6501 24.5545 27.5007 24.7039C27.3513 24.8533 27.1488 24.9373 26.9375 24.9375ZM41.2812 29.7188H31.7188V25.7344C31.7194 25.1006 31.9715 24.4929 32.4197 24.0447C32.8679 23.5965 33.4756 23.3444 34.1094 23.3438H38.8906C39.5244 23.3444 40.1321 23.5965 40.5803 24.0447C41.0285 24.4929 41.2806 25.1006 41.2812 25.7344V29.7188ZM34.1094 19.3594C34.1094 18.8866 34.2496 18.4244 34.5123 18.0312C34.775 17.6381 35.1483 17.3317 35.5851 17.1507C36.022 16.9698 36.5027 16.9224 36.9664 17.0147C37.4301 17.1069 37.8561 17.3346 38.1904 17.6689C38.5248 18.0033 38.7524 18.4293 38.8447 18.893C38.9369 19.3567 38.8896 19.8374 38.7086 20.2742C38.5277 20.7111 38.2213 21.0844 37.8282 21.3471C37.435 21.6098 36.9728 21.75 36.5 21.75C35.8662 21.7493 35.2585 21.4972 34.8103 21.049C34.3622 20.6009 34.1101 19.9932 34.1094 19.3594ZM45.2656 24.1406C45.2656 23.983 45.3124 23.8289 45.3999 23.6979C45.4875 23.5669 45.6119 23.4647 45.7575 23.4044C45.9032 23.3441 46.0634 23.3283 46.218 23.3591C46.3725 23.3898 46.5145 23.4657 46.626 23.5771C46.7374 23.6886 46.8133 23.8306 46.8441 23.9852C46.8748 24.1397 46.859 24.3 46.7987 24.4456C46.7384 24.5912 46.6363 24.7156 46.5052 24.8032C46.3742 24.8908 46.2201 24.9375 46.0625 24.9375C45.8512 24.9373 45.6487 24.8533 45.4993 24.7039C45.3499 24.5545 45.2658 24.3519 45.2656 24.1406ZM59.6094 12.9844H41.2812V14.5781H59.6094V34.5H47.6562V30.5156C47.6563 30.411 47.6357 30.3073 47.5956 30.2106C47.5556 30.1139 47.4969 30.0261 47.4229 29.9521C47.3489 29.8781 47.2611 29.8194 47.1644 29.7794C47.0677 29.7393 46.964 29.7187 46.8594 29.7188H46.4852L46.8353 28.3184C46.8514 28.2552 46.8595 28.1902 46.8594 28.125V26.3844C47.3911 26.1964 47.8392 25.8266 48.1246 25.3401C48.41 24.8537 48.5142 24.282 48.4189 23.7262C48.3235 23.1704 48.0347 22.6661 47.6036 22.3026C47.1724 21.9391 46.6266 21.7397 46.0626 21.7397C45.4987 21.7397 44.9529 21.939 44.5217 22.3025C44.0905 22.666 43.8017 23.1702 43.7063 23.7261C43.6109 24.2819 43.7151 24.8536 44.0004 25.34C44.2858 25.8265 44.7339 26.1964 45.2656 26.3844V28.027L44.8429 29.7188H42.875V25.7344C42.8731 24.8033 42.5452 23.9023 41.9483 23.1877C41.3514 22.4731 40.5232 21.9901 39.6073 21.8225C40.1712 21.125 40.4806 20.2562 40.4844 19.3594C40.4844 18.3027 40.0646 17.2892 39.3174 16.542C38.5702 15.7948 37.5567 15.375 36.5 15.375C35.4433 15.375 34.4298 15.7948 33.6826 16.542C32.9354 17.2892 32.5156 18.3027 32.5156 19.3594C32.5194 20.2562 32.8288 21.125 33.3927 21.8225C32.4768 21.9901 31.6486 22.4731 31.0517 23.1877C30.4548 23.9023 30.1269 24.8033 30.125 25.7344V29.7188H28.1571L27.7344 28.027V26.3844C28.2661 26.1964 28.7142 25.8266 28.9996 25.3401C29.285 24.8537 29.3892 24.282 29.2939 23.7262C29.1985 23.1704 28.9097 22.6661 28.4786 22.3026C28.0474 21.9391 27.5016 21.7397 26.9376 21.7397C26.3737 21.7397 25.8279 21.939 25.3967 22.3025C24.9655 22.666 24.6767 23.1702 24.5813 23.7261C24.4859 24.2819 24.5901 24.8536 24.8754 25.34C25.1608 25.8265 25.6089 26.1964 26.1406 26.3844V28.125C26.1405 28.1902 26.1486 28.2552 26.1647 28.3184L26.5148 29.7188H26.1406C26.036 29.7187 25.9323 29.7393 25.8356 29.7794C25.7389 29.8194 25.6511 29.8781 25.5771 29.9521C25.5031 30.0261 25.4444 30.1139 25.4044 30.2106C25.3643 30.3073 25.3437 30.411 25.3438 30.5156V34.5H13.3906V14.5781H31.7188V12.9844H13.3906V11.3906H59.6094V12.9844Z" fill="white" stroke="white" stroke-width="2" mask="url(#path-5-inside-2_193_2308)"/>
</g>
<defs>
<clipPath id="clip0_193_2308">
<rect width="51" height="51" fill="white" transform="translate(8 7)"/>
</clipPath>
<clipPath id="clip1_193_2308">
<rect width="51" height="51" fill="white" transform="translate(11 9)"/>
</clipPath>
</defs>
</svg>
