<svg width="62" height="72" viewBox="0 0 62 72" fill="none" xmlns="http://www.w3.org/2000/svg">
<g id="Group">
<g id="Group_2">
<g id="Group_3">
<path id="Vector" fill-rule="evenodd" clip-rule="evenodd" d="M14.4265 64.9382C9.1469 58.96 5.49316 50.1931 3.15057 42.594C0.668121 33.8271 -2.26886 17.7748 2.71352 9.16475C8.70985 -1.20563 24.8283 -0.909411 34.9329 1.12981C44.1459 3.16902 56.8903 8.43262 60.5615 17.7747C64.3726 27.8488 59.9846 41.1299 54.705 50.1931C46.4885 64.2062 28.7792 82.1583 14.4265 64.9382Z" fill="#A1BC51"/>
</g>
<g id="Group_4">
<g id="Group_5">
<path id="Vector_2" fill-rule="evenodd" clip-rule="evenodd" d="M46.3484 16.4151C46.3484 19.8138 45.4393 25.9314 42.6947 28.6678C41.9954 29.3301 41.1038 30.0273 40.1947 30.0273V16.4151H46.3484ZM8.76208 16.4151H14.9157V30.0273C14.0067 30.0273 13.0976 29.3301 12.3983 28.6678C9.67114 25.9314 8.98934 19.8138 8.76208 16.4151ZM38.6039 64.7463V59.535C38.6039 59.3084 38.3766 59.0643 38.1493 59.0643H36.3312C36.0865 59.0643 35.8592 58.8553 35.8592 58.3847V57.4783C35.8592 57.2692 35.6319 57.0426 35.1774 57.0426H31.0691H24.0064H19.8981C19.4436 57.0426 19.2163 57.2692 19.2163 57.4783V58.3847C19.2163 58.8553 18.9891 59.0643 18.5345 59.0643H17.1534C16.7164 59.0643 16.4891 59.291 16.4891 59.535V64.7463C16.4891 64.9554 16.7164 65.1995 17.1534 65.1995H38.1144C38.3766 65.182 38.6039 64.9554 38.6039 64.7463ZM29.723 19.3432V19.6047H29.9328H36.3312L31.0866 22.7768H30.8593V23.0207L33.132 28.4413L27.8874 25.0426H27.6776L22.433 28.4413L24.4784 23.0207V22.7768L19.2338 19.6047H25.6147V19.3432L27.6601 13.9053L29.723 19.3432ZM24.0239 54.2887C23.1148 54.2887 22.433 54.9685 22.433 55.6483C22.433 55.8923 22.433 55.8922 22.433 56.1188H32.695C32.695 55.8748 32.695 55.8749 32.695 55.6483C32.695 54.986 32.0132 54.2887 31.1041 54.2887H30.6496V46.1319H31.1041C32.0132 46.1319 32.695 45.4522 32.695 44.7725C32.695 44.3193 32.695 43.8661 32.2404 43.6395C31.7859 43.6395 31.3314 43.8661 30.8768 43.8661V41.8269C35.8942 40.6766 39.5304 36.6155 40.4395 31.6133C42.2576 31.3867 43.866 30.707 45.2296 29.3301C50.0196 24.3279 49.7924 13.6961 49.7924 13.2255C49.7924 12.3192 49.1106 11.6395 48.4288 11.6395H40.4395V8.46739C40.4395 8.01423 40.2122 7.56104 39.7577 7.56104H16.0521C15.5975 7.56104 15.143 8.01423 15.143 8.46739V11.6395H7.39848C6.5069 11.6395 5.80762 12.3192 5.80762 13.2255C5.80762 13.6961 5.80762 24.3454 10.3704 29.3301C11.734 30.707 13.5522 31.3693 15.3703 31.6133C16.0521 36.6155 19.9331 40.6766 24.7232 41.8269V43.8661C24.0414 43.8661 23.5868 43.6395 22.8875 43.6395C22.6778 43.8661 22.433 44.3193 22.433 44.7725C22.433 45.4522 23.1148 46.1319 24.0239 46.1319H24.7057V54.2887H24.0239Z" fill="#7F973A"/>
</g>
</g>
<g id="Group_6">
<g id="Group_7">
<path id="Vector_3" fill-rule="evenodd" clip-rule="evenodd" d="M49.8279 21.1036C49.8279 24.5023 48.9188 30.6199 46.1742 33.3563C45.4749 34.0186 44.5833 34.7158 43.6742 34.7158V21.1036H49.8279ZM12.2241 21.1036H18.3778V34.7158C17.4687 34.7158 16.5596 34.036 15.8604 33.3563C13.1332 30.6199 12.4688 24.5023 12.2241 21.1036ZM42.0659 69.4173V64.206C42.0659 63.962 41.8386 63.7355 41.6114 63.7355H39.7932C39.5485 63.7355 39.3212 63.5263 39.3212 63.0557V62.1494C39.3212 61.9402 39.0939 61.7136 38.6394 61.7136H34.5311H27.4684H23.3601C22.9056 61.7136 22.6783 61.9402 22.6783 62.1494V63.0557C22.6783 63.5263 22.4511 63.7355 21.9965 63.7355H20.6155C20.1784 63.7355 19.9511 63.962 19.9511 64.206V69.4173C19.9511 69.6265 20.1784 69.8705 20.6155 69.8705H41.5764C41.8386 69.8705 42.0659 69.6265 42.0659 69.4173ZM33.2025 24.0317V24.2932H33.4123H39.8107L34.5661 27.4653H34.3388V27.6918L36.6115 33.1298L31.3669 29.7311H31.1571L25.9125 33.1298L27.9579 27.6918V27.4653L22.7308 24.2932H29.1117V24.0317L31.1571 18.6112L33.2025 24.0317ZM27.5034 58.9772C26.5943 58.9772 25.9125 59.657 25.9125 60.3368C25.9125 60.5633 25.9125 60.5633 25.9125 60.8073H36.1744C36.1744 60.5633 36.1744 60.5633 36.1744 60.3368C36.1744 59.6744 35.4926 58.9772 34.5836 58.9772H34.1291V50.8204H34.5836C35.4926 50.8204 36.1744 50.1407 36.1744 49.4609C36.1744 49.0078 36.1745 48.5546 35.7199 48.328C35.2654 48.328 34.8109 48.5546 34.3563 48.5546V46.5154C39.3737 45.3825 43.0099 41.304 43.919 36.3018C45.7371 36.0752 47.3455 35.3955 48.709 34.0186C53.4991 29.0164 53.2719 18.3846 53.2719 17.914C53.2719 17.0077 52.5901 16.328 51.9083 16.328H43.919V13.1559C43.919 12.7027 43.6917 12.2495 43.2372 12.2495H19.5316C19.077 12.2495 18.6225 12.7027 18.6225 13.1559V16.328H10.878C9.98639 16.328 9.28711 17.0077 9.28711 17.914C9.28711 18.3846 9.28711 29.0338 13.8499 34.0186C15.2135 35.3955 17.0316 36.0578 18.8498 36.3018C19.5316 41.304 23.4126 45.3651 28.2027 46.5154V48.5546C27.5034 48.5546 27.0663 48.328 26.367 48.328C26.1573 48.5546 25.9125 49.0078 25.9125 49.4609C25.9125 50.1407 26.5943 50.8204 27.5034 50.8204H28.2027V58.9772H27.5034Z" fill="white"/>
</g>
</g>
</g>
</g>
</svg>
