<svg width="72" height="62" viewBox="0 0 72 62" fill="none" xmlns="http://www.w3.org/2000/svg">
<path fill-rule="evenodd" clip-rule="evenodd" d="M5.87184 55.8809C0.468165 51.6906 -0.358573 44.7365 0.113879 38.674C0.660153 35.8062 0.719227 35.2862 1.51649 31.9726C4.61696 20.3231 13.9331 3.57686 26.2759 0.664477C37.8657 -2.17361 48.7617 4.54269 57.3397 12.0317C57.3397 12.0317 57.3397 12.0317 57.5907 12.21C65.6814 19.9516 74.658 32.9979 71.2623 44.9743C67.6746 56.8764 48.6731 60.7844 38.4121 61.6165C28.7563 62.612 13.4163 61.988 5.87184 55.8809Z" fill="#A1BC51"/>
<path fill-rule="evenodd" clip-rule="evenodd" d="M45.8535 48.2781V17.5151H20.4444V48.2781H45.8535ZM47.7729 14.813H18.7318C17.7722 14.813 16.8125 15.3928 16.8125 16.1039V49.7112C16.8125 50.4223 17.7722 50.9912 18.7318 50.9912H47.7729C48.7473 50.9912 49.707 50.4223 49.707 49.7112V16.1039C49.6922 15.3819 48.7325 14.813 47.7729 14.813Z" fill="#7F973A"/>
<path fill-rule="evenodd" clip-rule="evenodd" d="M48.7765 51.2103V20.4473H23.3675V51.2103H48.7765ZM50.6959 17.7451H21.64C20.6804 17.7451 19.7207 18.314 19.7207 19.0251V52.6215C19.7207 53.3326 20.6804 53.9015 21.64 53.9015H50.6959C51.6556 53.9015 52.63 53.3326 52.63 52.6215V19.0251C52.63 18.3249 51.6556 17.7451 50.6959 17.7451Z" fill="white"/>
<path d="M33.9939 40.3392C33.5461 40.3392 33.2028 40.2198 32.964 39.9809C32.7252 39.7272 32.6058 39.3765 32.6058 38.9287V35.9287H29.6729C29.2401 35.9287 28.9042 35.8167 28.6654 35.5928C28.4415 35.3689 28.3296 35.0406 28.3296 34.6077C28.3296 34.1749 28.4415 33.8465 28.6654 33.6227C28.9042 33.3988 29.2401 33.2868 29.6729 33.2868H32.6058V30.3987C32.6058 29.951 32.7252 29.6077 32.964 29.3689C33.2028 29.1301 33.5535 29.0107 34.0162 29.0107C34.464 29.0107 34.7998 29.1301 35.0237 29.3689C35.2625 29.6077 35.3819 29.951 35.3819 30.3987V33.2868H38.3148C38.7477 33.2868 39.076 33.3988 39.2999 33.6227C39.5387 33.8465 39.6581 34.1749 39.6581 34.6077C39.6581 35.0406 39.5387 35.3689 39.2999 35.5928C39.076 35.8167 38.7477 35.9287 38.3148 35.9287H35.3819V38.9287C35.3819 39.3765 35.2625 39.7272 35.0237 39.9809C34.7998 40.2198 34.4565 40.3392 33.9939 40.3392Z" fill="#7F973A"/>
<path d="M36.0837 41.6292C35.6359 41.6292 35.2926 41.5098 35.0538 41.271C34.815 41.0173 34.6956 40.6665 34.6956 40.2187V37.2187H31.7627C31.3299 37.2187 30.9941 37.1068 30.7553 36.8829C30.5314 36.659 30.4194 36.3306 30.4194 35.8978C30.4194 35.4649 30.5314 35.1366 30.7553 34.9127C30.9941 34.6888 31.3299 34.5769 31.7627 34.5769H34.6956V31.6888C34.6956 31.241 34.815 30.8977 35.0538 30.6589C35.2926 30.4201 35.6434 30.3007 36.1061 30.3007C36.5539 30.3007 36.8897 30.4201 37.1136 30.6589C37.3524 30.8977 37.4718 31.241 37.4718 31.6888V34.5769H40.4047C40.8375 34.5769 41.1659 34.6888 41.3897 34.9127C41.6286 35.1366 41.748 35.4649 41.748 35.8978C41.748 36.3306 41.6286 36.659 41.3897 36.8829C41.1659 37.1068 40.8375 37.2187 40.4047 37.2187H37.4718V40.2187C37.4718 40.6665 37.3524 41.0173 37.1136 41.271C36.8897 41.5098 36.5464 41.6292 36.0837 41.6292Z" fill="white"/>
</svg>
