<svg width="62" height="72" viewBox="0 0 62 72" fill="none" xmlns="http://www.w3.org/2000/svg">
<path fill-rule="evenodd" clip-rule="evenodd" d="M14.4265 64.9382C9.1469 58.96 5.49316 50.1931 3.15057 42.594C0.668121 33.8271 -2.26886 17.7748 2.71352 9.16475C8.70985 -1.20563 24.8283 -0.909411 34.9329 1.12981C44.1459 3.16902 56.8903 8.43262 60.5615 17.7747C64.3726 27.8488 59.9846 41.1299 54.705 50.1931C46.4885 64.2062 28.7792 82.1583 14.4265 64.9382Z" fill="#A1BC51"/>
<path d="M44.7315 22.6908C46.1973 21.2251 47.1406 19.3685 47.4599 17.3194C47.624 16.2631 47.2852 15.2248 46.5288 14.4691C45.7731 13.7135 44.7331 13.3755 43.6801 13.5396C41.6318 13.8589 39.7745 14.8014 38.3087 16.2672L33.7758 20.8001L31.062 20.2094C31.5251 19.5066 31.448 18.5495 30.8305 17.9312C30.1236 17.2259 28.9755 17.2251 28.2686 17.9312L26.898 19.3019L23.6821 18.6015L23.9063 18.3773C24.6124 17.6712 24.6116 16.5215 23.9063 15.8163C23.2246 15.1321 22.0311 15.1313 21.3453 15.8163L19.4766 17.685L12.8206 16.2355C12.2973 16.1209 11.757 16.2802 11.376 16.6596L10.0361 17.9994C9.68433 18.3513 9.52183 18.8363 9.59171 19.3295C9.66158 19.8227 9.95164 20.2436 10.388 20.4849L26.0196 29.1201L18.1067 37.7781L10.0703 38.2055L8.82552 39.4494C8.55902 39.7168 8.44689 40.0978 8.52571 40.4675C8.60533 40.8372 8.86289 41.1378 9.21552 41.2719L16.823 44.1774L19.7293 51.7856C19.8641 52.1383 20.1648 52.3966 20.5345 52.4754C20.6125 52.4917 20.6913 52.4998 20.7685 52.4998C21.0593 52.4998 21.3405 52.3853 21.5525 52.174L22.7956 50.9309L23.223 42.8936L31.881 34.9807L40.5106 50.6067C40.7511 51.043 41.172 51.3331 41.6651 51.403C42.1583 51.4712 42.6434 51.3103 42.9952 50.9585L44.3358 49.6187C44.7153 49.2393 44.8737 48.6998 44.76 48.1749L43.3129 41.5254L45.1841 39.655C45.5261 39.313 45.7146 38.8579 45.7146 38.3737C45.7146 37.8894 45.5261 37.4344 45.1841 37.0924C44.4772 36.3871 43.3291 36.3863 42.6223 37.0924L42.3972 37.3174L41.6976 34.1016L43.0691 32.7301C43.4112 32.388 43.5997 31.933 43.5997 31.4488C43.5997 30.9645 43.4112 30.5095 43.07 30.1683C42.4728 29.5711 41.4872 29.4955 40.7917 29.9399L40.2002 27.2221L44.7331 22.6892L44.7315 22.6908Z" fill="#7F973A"/>
<path d="M47.7315 25.6908C49.1973 24.2251 50.1406 22.3685 50.4599 20.3194C50.624 19.2631 50.2852 18.2248 49.5288 17.4691C48.7731 16.7135 47.7331 16.3755 46.6801 16.5396C44.6318 16.8589 42.7745 17.8014 41.3087 19.2672L36.7758 23.8001L34.062 23.2094C34.5251 22.5066 34.448 21.5495 33.8305 20.9312C33.1236 20.2259 31.9755 20.2251 31.2686 20.9312L29.898 22.3019L26.6821 21.6015L26.9063 21.3773C27.6124 20.6712 27.6116 19.5215 26.9063 18.8163C26.2246 18.1321 25.0311 18.1313 24.3453 18.8163L22.4766 20.685L15.8206 19.2355C15.2973 19.1209 14.757 19.2802 14.376 19.6596L13.0361 20.9994C12.6843 21.3513 12.5218 21.8363 12.5917 22.3295C12.6616 22.8227 12.9516 23.2436 13.388 23.4849L29.0196 32.1201L21.1067 40.7781L13.0703 41.2055L11.8255 42.4494C11.559 42.7168 11.4469 43.0978 11.5257 43.4675C11.6053 43.8372 11.8629 44.1378 12.2155 44.2719L19.823 47.1774L22.7293 54.7856C22.8641 55.1383 23.1648 55.3966 23.5345 55.4754C23.6125 55.4917 23.6913 55.4998 23.7685 55.4998C24.0593 55.4998 24.3405 55.3853 24.5525 55.174L25.7956 53.9309L26.223 45.8936L34.881 37.9807L43.5106 53.6067C43.7511 54.043 44.172 54.3331 44.6651 54.403C45.1583 54.4712 45.6434 54.3103 45.9952 53.9585L47.3358 52.6187C47.7153 52.2393 47.8737 51.6998 47.76 51.1749L46.3129 44.5254L48.1841 42.655C48.5261 42.313 48.7146 41.8579 48.7146 41.3737C48.7146 40.8894 48.5261 40.4344 48.1841 40.0924C47.4772 39.3871 46.3291 39.3863 45.6223 40.0924L45.3972 40.3174L44.6976 37.1016L46.0691 35.7301C46.4112 35.388 46.5997 34.933 46.5997 34.4488C46.5997 33.9645 46.4112 33.5095 46.07 33.1683C45.4728 32.5711 44.4872 32.4955 43.7917 32.9399L43.2002 30.2221L47.7331 25.6892L47.7315 25.6908Z" fill="white"/>
</svg>
