<svg width="72" height="67" viewBox="0 0 72 67" fill="none" xmlns="http://www.w3.org/2000/svg">
<path fill-rule="evenodd" clip-rule="evenodd" d="M5.87184 55.8809C0.468165 51.6906 -0.358573 44.7365 0.113879 38.674C0.660153 35.8062 0.719227 35.2862 1.51649 31.9726C4.61696 20.3231 13.9331 3.57686 26.2759 0.664477C37.8657 -2.17361 48.7617 4.54269 57.3397 12.0317C57.3397 12.0317 57.3397 12.0317 57.5907 12.21C65.6814 19.9516 74.658 32.9979 71.2623 44.9743C67.6746 56.8764 48.6731 60.7844 38.4121 61.6165C28.7563 62.612 13.4163 61.988 5.87184 55.8809Z" fill="#A1BC51"/>
<path d="M55.4092 56.1285C53.3069 56.1285 51.5967 54.4183 51.5967 52.316C51.5967 50.7724 52.5187 49.4401 53.8411 48.841C53.7522 48.7907 53.6588 48.7382 53.5608 48.6841C53.2729 48.5248 53.1686 48.1624 53.3279 47.8746C53.4872 47.5867 53.8499 47.4822 54.1375 47.6417C54.8698 48.0467 55.3637 48.3572 55.5955 48.508C57.6115 48.6055 59.2217 50.2763 59.2217 52.316C59.2217 54.4183 57.5114 56.1285 55.4092 56.1285ZM55.4014 49.6949C53.9597 49.6992 52.7881 50.8735 52.7881 52.316C52.7881 53.7613 53.9639 54.9371 55.4092 54.9371C56.8545 54.9371 58.0303 53.7613 58.0303 52.316C58.0303 50.8731 56.8583 49.6986 55.4162 49.6949C55.4113 49.6949 55.4066 49.6948 55.4014 49.6949ZM13.5908 56.1285C11.4886 56.1285 9.77832 54.4183 9.77832 52.316C9.77832 50.2763 11.3886 48.6055 13.4046 48.508C13.6432 48.3528 14.1598 48.0285 14.9283 47.6056C15.2167 47.4473 15.5788 47.5522 15.7374 47.8404C15.8961 48.1286 15.791 48.4908 15.5027 48.6495C15.3816 48.7161 15.2671 48.7802 15.1593 48.8413C16.4814 49.4403 17.4033 50.7726 17.4033 52.316C17.4033 54.4183 15.6931 56.1285 13.5908 56.1285ZM13.5908 49.6949C12.1455 49.6949 10.9697 50.8707 10.9697 52.316C10.9697 53.7613 12.1455 54.9371 13.5908 54.9371C15.0361 54.9371 16.2119 53.7613 16.2119 52.316C16.2119 50.8707 15.0361 49.6949 13.5908 49.6949ZM51.1073 47.3942C51.0258 47.3942 50.9431 47.3774 50.864 47.342C50.1774 47.0343 49.4644 46.7388 48.745 46.4642C48.4377 46.3468 48.2836 46.0025 48.401 45.6953C48.5183 45.3879 48.8625 45.2336 49.1699 45.3512C49.9104 45.6339 50.6443 45.9379 51.3512 46.2549C51.6516 46.3895 51.7858 46.7419 51.6512 47.042C51.552 47.263 51.3348 47.3942 51.1073 47.3942ZM18.4061 47.1689C18.1756 47.1689 17.9561 47.0343 17.8589 46.8091C17.7285 46.5071 17.8676 46.1565 18.1698 46.0261C18.8886 45.7159 19.6265 45.4219 20.3624 45.1527C20.6717 45.0394 21.0135 45.1986 21.1266 45.5075C21.2396 45.8165 21.0807 46.1586 20.7718 46.2715C20.0569 46.5331 19.3403 46.8186 18.6419 47.1201C18.5649 47.1532 18.4849 47.1689 18.4061 47.1689ZM24.2912 45.1374C24.0273 45.1374 23.786 44.9608 23.7155 44.6934C23.6316 44.3753 23.8215 44.0495 24.1397 43.9656C25.0332 43.7299 25.9459 43.5215 26.8526 43.3462C27.1752 43.2841 27.4881 43.4948 27.5506 43.8178C27.6131 44.1409 27.402 44.4535 27.079 44.5159C26.1983 44.6863 25.3116 44.8888 24.4436 45.1177C24.3926 45.1311 24.3415 45.1374 24.2912 45.1374ZM44.671 45.1277C44.621 45.1277 44.5701 45.1214 44.5195 45.108C43.8363 44.9287 43.1444 44.7658 42.4625 44.6241C42.1405 44.557 41.9337 44.2416 42.0006 43.9195C42.0677 43.5975 42.382 43.3906 42.7052 43.4576C43.407 43.6036 44.1191 43.7711 44.822 43.9557C45.1402 44.0392 45.3305 44.3649 45.2468 44.683C45.1767 44.9506 44.9353 45.1277 44.671 45.1277ZM38.8181 44.0372C38.7961 44.0372 38.7741 44.036 38.7517 44.0336C38.0443 43.955 37.3245 43.8952 36.6115 43.8557C36.2831 43.8376 36.0316 43.5566 36.0497 43.228C36.0678 42.8994 36.3486 42.6493 36.6774 42.6661C37.412 42.7067 38.1543 42.7683 38.8832 42.8493C39.2102 42.8858 39.4459 43.1802 39.4095 43.5071C39.3757 43.8119 39.1178 44.0372 38.8181 44.0372ZM30.2084 44.0344C29.9086 44.0344 29.6505 43.8087 29.617 43.5038C29.581 43.1769 29.8171 42.8826 30.1441 42.8466C31.0335 42.7489 31.9343 42.68 32.8215 42.642C33.1516 42.6236 33.4281 42.8829 33.4422 43.2117C33.4562 43.5404 33.2011 43.8182 32.8724 43.8323C32.0114 43.8692 31.1373 43.9359 30.2742 44.0307C30.252 44.0332 30.2301 44.0344 30.2084 44.0344Z" fill="#7F973A"/>
<path d="M56.4092 57.1285C54.3069 57.1285 52.5967 55.4183 52.5967 53.316C52.5967 51.7724 53.5187 50.4401 54.8411 49.841C54.7522 49.7907 54.6588 49.7382 54.5608 49.6841C54.2729 49.5248 54.1686 49.1624 54.3279 48.8746C54.4872 48.5867 54.8499 48.4822 55.1375 48.6417C55.8698 49.0467 56.3637 49.3572 56.5955 49.508C58.6115 49.6055 60.2217 51.2763 60.2217 53.316C60.2217 55.4183 58.5114 57.1285 56.4092 57.1285ZM56.4014 50.6949C54.9597 50.6992 53.7881 51.8735 53.7881 53.316C53.7881 54.7613 54.9639 55.9371 56.4092 55.9371C57.8545 55.9371 59.0303 54.7613 59.0303 53.316C59.0303 51.8731 57.8583 50.6986 56.4162 50.6949C56.4113 50.6949 56.4066 50.6948 56.4014 50.6949ZM14.5908 57.1285C12.4886 57.1285 10.7783 55.4183 10.7783 53.316C10.7783 51.2763 12.3886 49.6055 14.4046 49.508C14.6432 49.3528 15.1598 49.0285 15.9283 48.6056C16.2167 48.4473 16.5788 48.5522 16.7374 48.8404C16.8961 49.1286 16.791 49.4908 16.5027 49.6495C16.3816 49.7161 16.2671 49.7802 16.1593 49.8413C17.4814 50.4403 18.4033 51.7726 18.4033 53.316C18.4033 55.4183 16.6931 57.1285 14.5908 57.1285ZM14.5908 50.6949C13.1455 50.6949 11.9697 51.8707 11.9697 53.316C11.9697 54.7613 13.1455 55.9371 14.5908 55.9371C16.0361 55.9371 17.2119 54.7613 17.2119 53.316C17.2119 51.8707 16.0361 50.6949 14.5908 50.6949ZM52.1073 48.3942C52.0258 48.3942 51.9431 48.3774 51.864 48.342C51.1774 48.0343 50.4644 47.7388 49.745 47.4642C49.4377 47.3468 49.2836 47.0025 49.401 46.6953C49.5183 46.3879 49.8625 46.2336 50.1699 46.3512C50.9104 46.6339 51.6443 46.9379 52.3512 47.2549C52.6516 47.3895 52.7858 47.7419 52.6512 48.042C52.552 48.263 52.3348 48.3942 52.1073 48.3942ZM19.4061 48.1689C19.1756 48.1689 18.9561 48.0343 18.8589 47.8091C18.7285 47.5071 18.8676 47.1565 19.1698 47.0261C19.8886 46.7159 20.6265 46.4219 21.3624 46.1527C21.6717 46.0394 22.0135 46.1986 22.1266 46.5075C22.2396 46.8165 22.0807 47.1586 21.7718 47.2715C21.0569 47.5331 20.3403 47.8186 19.6419 48.1201C19.5649 48.1532 19.4849 48.1689 19.4061 48.1689ZM25.2912 46.1374C25.0273 46.1374 24.786 45.9608 24.7155 45.6934C24.6316 45.3753 24.8215 45.0495 25.1397 44.9656C26.0332 44.7299 26.9459 44.5215 27.8526 44.3462C28.1752 44.2841 28.4881 44.4948 28.5506 44.8178C28.6131 45.1409 28.402 45.4535 28.079 45.5159C27.1983 45.6863 26.3116 45.8888 25.4436 46.1177C25.3926 46.1311 25.3415 46.1374 25.2912 46.1374ZM45.671 46.1277C45.621 46.1277 45.5701 46.1214 45.5195 46.108C44.8363 45.9287 44.1444 45.7658 43.4625 45.6241C43.1405 45.557 42.9337 45.2416 43.0006 44.9195C43.0677 44.5975 43.382 44.3906 43.7052 44.4576C44.407 44.6036 45.1191 44.7711 45.822 44.9557C46.1402 45.0392 46.3305 45.3649 46.2468 45.683C46.1767 45.9506 45.9353 46.1277 45.671 46.1277ZM39.8181 45.0372C39.7961 45.0372 39.7741 45.036 39.7517 45.0336C39.0443 44.955 38.3245 44.8952 37.6115 44.8557C37.2831 44.8376 37.0316 44.5566 37.0497 44.228C37.0678 43.8994 37.3486 43.6493 37.6774 43.6661C38.412 43.7067 39.1543 43.7683 39.8832 43.8493C40.2102 43.8858 40.4459 44.1802 40.4095 44.5071C40.3757 44.8119 40.1178 45.0372 39.8181 45.0372ZM31.2084 45.0344C30.9086 45.0344 30.6505 44.8087 30.617 44.5038C30.581 44.1769 30.8171 43.8826 31.1441 43.8466C32.0335 43.7489 32.9343 43.68 33.8215 43.642C34.1516 43.6236 34.4281 43.8829 34.4422 44.2117C34.4562 44.5404 34.2011 44.8182 33.8724 44.8323C33.0114 44.8692 32.1373 44.9359 31.2742 45.0307C31.252 45.0332 31.2301 45.0344 31.2084 45.0344Z" fill="white"/>
<g clip-path="url(#clip0_193_2383)">
<path d="M49.9831 34.3623V18.0692C49.9831 17.4027 49.4427 16.8623 48.7762 16.8623H22.2245C21.5579 16.8623 21.0176 17.4027 21.0176 18.0692V34.3623H49.9831Z" fill="#EFEFEF"/>
<path d="M30.6727 14.4482H40.3279C40.9944 14.4482 41.5348 14.9886 41.5348 15.6551V34.362H29.4658V15.6551C29.4658 14.9886 30.0062 14.4482 30.6727 14.4482Z" fill="white"/>
<path d="M36.0593 6.3546L36.6447 7.60253L38.0163 7.81012C38.2449 7.84512 38.4347 8.00494 38.5082 8.2242C38.5817 8.44347 38.5264 8.68541 38.3651 8.85107L37.3519 9.889L37.5848 11.3143C37.6221 11.5469 37.5239 11.7803 37.3316 11.9162C37.1392 12.0521 36.8864 12.0668 36.6797 11.954L35.5005 11.3053L34.3244 11.9558C34.1177 12.0686 33.8648 12.0539 33.6725 11.918C33.4802 11.7821 33.382 11.5487 33.4192 11.3162L33.6522 9.89081L32.639 8.85288C32.4767 8.68773 32.4204 8.44565 32.4933 8.22587C32.5662 8.00609 32.7559 7.84557 32.9847 7.81012L34.354 7.60253L34.9393 6.3546C35.0405 6.13657 35.259 5.99707 35.4993 5.99707C35.7397 5.99707 35.9582 6.13657 36.0593 6.3546Z" fill="white"/>
<path d="M27.8527 7.52613L28.3759 8.64915L29.6009 8.83803C29.8056 8.87108 29.975 9.01525 30.0403 9.21207C30.1056 9.40889 30.056 9.6257 29.9117 9.77458L29.0071 10.7069L29.2153 11.9892C29.2507 12.1982 29.1633 12.409 28.9905 12.5317C28.8176 12.6543 28.5898 12.6673 28.4042 12.5649L27.3536 11.9796L26.303 12.5649C26.1174 12.6673 25.8896 12.6543 25.7168 12.5317C25.544 12.409 25.4566 12.1982 25.492 11.9892L25.7002 10.7069L24.795 9.77217C24.651 9.62317 24.6017 9.40648 24.6671 9.20985C24.7326 9.01322 24.9018 8.86924 25.1064 8.83622L26.3314 8.64734L26.8546 7.52432C26.9448 7.3299 27.1399 7.20567 27.3542 7.20606C27.5686 7.20644 27.7631 7.33138 27.8527 7.52613Z" fill="white"/>
<path d="M20.8573 9.90499L21.322 10.9031L22.4112 11.069C22.5934 11.0983 22.7442 11.2266 22.8023 11.4018C22.8604 11.577 22.8162 11.77 22.6876 11.9024L21.8838 12.734L22.0684 13.8739C22.0999 14.0595 22.0224 14.2469 21.8688 14.3559C21.7153 14.465 21.5128 14.4765 21.3479 14.3856L20.4138 13.8654L19.4796 14.388C19.3147 14.4789 19.1123 14.4674 18.9587 14.3583C18.8052 14.2493 18.7276 14.062 18.7591 13.8763L18.9438 12.7364L18.14 11.9036C18.0106 11.7713 17.966 11.5778 18.0241 11.4022C18.0823 11.2265 18.2336 11.098 18.4163 11.069L19.5086 10.9031L19.9732 9.90499C20.0536 9.73353 20.2259 9.62402 20.4153 9.62402C20.6046 9.62402 20.7769 9.73353 20.8573 9.90499Z" fill="white"/>
<path d="M43.1475 7.52613L42.6243 8.64915L41.3993 8.83803C41.1946 8.87108 41.0253 9.01525 40.96 9.21207C40.8947 9.40889 40.9442 9.6257 41.0886 9.77458L41.9931 10.7069L41.785 11.9892C41.7496 12.1982 41.8369 12.409 42.0098 12.5317C42.1826 12.6543 42.4104 12.6673 42.596 12.5649L43.6466 11.9796L44.6972 12.5649C44.8828 12.6673 45.1106 12.6543 45.2834 12.5317C45.4563 12.409 45.5436 12.1982 45.5082 11.9892L45.3 10.7069L46.2052 9.77217C46.3492 9.62317 46.3985 9.40648 46.3331 9.20985C46.2677 9.01322 46.0984 8.86924 45.8938 8.83622L44.6688 8.64734L44.1456 7.52432C44.0554 7.3299 43.8604 7.20567 43.646 7.20606C43.4317 7.20644 43.2371 7.33138 43.1475 7.52613Z" fill="white"/>
<path d="M50.1429 9.90483L49.6812 10.9029L48.595 11.0701C48.4128 11.0994 48.262 11.2277 48.2039 11.4029C48.1458 11.5781 48.19 11.7711 48.3186 11.9035L49.1224 12.7338L48.9378 13.8737C48.9063 14.0594 48.9838 14.2467 49.1374 14.3558C49.2909 14.4648 49.4934 14.4763 49.6583 14.3854L50.5864 13.8653L51.5205 14.3854C51.6855 14.4763 51.8879 14.4648 52.0414 14.3558C52.195 14.2467 52.2726 14.0594 52.2411 13.8737L52.0564 12.7338L52.8602 11.9035C52.9895 11.7711 53.0342 11.5777 52.976 11.402C52.9179 11.2264 52.7666 11.0979 52.5838 11.0689L51.4976 10.9017L51.0329 9.90362C50.9538 9.72872 50.7795 9.61644 50.5875 9.6167C50.3955 9.61696 50.2215 9.72971 50.1429 9.90483Z" fill="white"/>
<path d="M52.3966 33.7588H18.6034C18.2702 33.7588 18 34.029 18 34.3622V40.3967C18 40.73 18.2702 41.0002 18.6034 41.0002H52.3966C52.7298 41.0002 53 40.73 53 40.3967V34.3622C53 34.029 52.7298 33.7588 52.3966 33.7588Z" fill="white"/>
<path d="M21.6211 36.7759H25.2418V41H21.6211V36.7759Z" fill="#656565"/>
<path d="M35.5 36.1724H38.5172V40.9999H35.5V36.1724Z" fill="#656565"/>
<path d="M32.4824 36.1724H35.4997V40.9999H32.4824V36.1724Z" fill="#A1BC51"/>
<path d="M39.7246 36.7757H31.2763C30.943 36.7757 30.6729 36.5056 30.6729 36.1723C30.6729 35.839 30.943 35.5688 31.2763 35.5688H39.7246C40.0579 35.5688 40.328 35.839 40.328 36.1723C40.328 36.5056 40.0579 36.7757 39.7246 36.7757Z" fill="#EFEFEF"/>
<path d="M25.8451 37.3793H21.0175C20.6842 37.3793 20.4141 37.1091 20.4141 36.7758C20.4141 36.4425 20.6842 36.1724 21.0175 36.1724H25.8451C26.1784 36.1724 26.4485 36.4425 26.4485 36.7758C26.4485 37.1091 26.1784 37.3793 25.8451 37.3793Z" fill="#EFEFEF"/>
<path d="M45.7588 36.7759H49.3795V41H45.7588V36.7759Z" fill="#656565"/>
<path d="M49.9828 37.3793H45.1552C44.8219 37.3793 44.5518 37.1091 44.5518 36.7758C44.5518 36.4425 44.8219 36.1724 45.1552 36.1724H49.9828C50.3161 36.1724 50.5862 36.4425 50.5862 36.7758C50.5862 37.1091 50.3161 37.3793 49.9828 37.3793Z" fill="#EFEFEF"/>
<path d="M33.6893 17.4653H32.4824C32.1491 17.4653 31.8789 17.7355 31.8789 18.0688V19.2757C31.8789 19.609 32.1491 19.8791 32.4824 19.8791H33.6893C34.0225 19.8791 34.2927 19.609 34.2927 19.2757V18.0688C34.2927 17.7355 34.0225 17.4653 33.6893 17.4653Z" fill="#A1BC51"/>
<path d="M38.5164 17.4653H37.3095C36.9762 17.4653 36.7061 17.7355 36.7061 18.0688V19.2757C36.7061 19.609 36.9762 19.8791 37.3095 19.8791H38.5164C38.8497 19.8791 39.1198 19.609 39.1198 19.2757V18.0688C39.1198 17.7355 38.8497 17.4653 38.5164 17.4653Z" fill="#A1BC51"/>
<path d="M33.6893 22.8965H32.4824C32.1491 22.8965 31.8789 23.1667 31.8789 23.4999V24.7068C31.8789 25.0401 32.1491 25.3103 32.4824 25.3103H33.6893C34.0225 25.3103 34.2927 25.0401 34.2927 24.7068V23.4999C34.2927 23.1667 34.0225 22.8965 33.6893 22.8965Z" fill="#A1BC51"/>
<path d="M38.5164 22.8965H37.3095C36.9762 22.8965 36.7061 23.1667 36.7061 23.4999V24.7068C36.7061 25.0401 36.9762 25.3103 37.3095 25.3103H38.5164C38.8497 25.3103 39.1198 25.0401 39.1198 24.7068V23.4999C39.1198 23.1667 38.8497 22.8965 38.5164 22.8965Z" fill="#A1BC51"/>
<path d="M33.6893 28.3276H32.4824C32.1491 28.3276 31.8789 28.5978 31.8789 28.9311V30.138C31.8789 30.4713 32.1491 30.7414 32.4824 30.7414H33.6893C34.0225 30.7414 34.2927 30.4713 34.2927 30.138V28.9311C34.2927 28.5978 34.0225 28.3276 33.6893 28.3276Z" fill="#A1BC51"/>
<path d="M26.4479 19.2759H24.0341C23.7008 19.2759 23.4307 19.5461 23.4307 19.8793V21.0862C23.4307 21.4195 23.7008 21.6897 24.0341 21.6897H26.4479C26.7812 21.6897 27.0514 21.4195 27.0514 21.0862V19.8793C27.0514 19.5461 26.7812 19.2759 26.4479 19.2759Z" fill="#A1BC51"/>
<path d="M26.4479 24.103H24.0341C23.7008 24.103 23.4307 24.3732 23.4307 24.7065V25.9134C23.4307 26.2466 23.7008 26.5168 24.0341 26.5168H26.4479C26.7812 26.5168 27.0514 26.2466 27.0514 25.9134V24.7065C27.0514 24.3732 26.7812 24.103 26.4479 24.103Z" fill="#A1BC51"/>
<path d="M26.4479 28.9307H24.0341C23.7008 28.9307 23.4307 29.2008 23.4307 29.5341V30.741C23.4307 31.0743 23.7008 31.3445 24.0341 31.3445H26.4479C26.7812 31.3445 27.0514 31.0743 27.0514 30.741V29.5341C27.0514 29.2008 26.7812 28.9307 26.4479 28.9307Z" fill="#A1BC51"/>
<path d="M44.5511 21.6895H46.9649C47.2982 21.6895 47.5684 21.4193 47.5684 21.086V19.8791C47.5684 19.5458 47.2982 19.2757 46.9649 19.2757H44.5511C44.2178 19.2757 43.9477 19.5458 43.9477 19.8791V21.086C43.9477 21.4193 44.2178 21.6895 44.5511 21.6895Z" fill="#A1BC51"/>
<path d="M44.5511 26.5171H46.9649C47.2982 26.5171 47.5684 26.2469 47.5684 25.9136V24.7067C47.5684 24.3735 47.2982 24.1033 46.9649 24.1033H44.5511C44.2178 24.1033 43.9477 24.3735 43.9477 24.7067V25.9136C43.9477 26.2469 44.2178 26.5171 44.5511 26.5171Z" fill="#A1BC51"/>
<path d="M44.5511 31.3447H46.9649C47.2982 31.3447 47.5684 31.0746 47.5684 30.7413V29.5344C47.5684 29.2011 47.2982 28.9309 46.9649 28.9309H44.5511C44.2178 28.9309 43.9477 29.2011 43.9477 29.5344V30.7413C43.9477 31.0746 44.2178 31.3447 44.5511 31.3447Z" fill="#A1BC51"/>
<path d="M38.5164 28.3276H37.3095C36.9762 28.3276 36.7061 28.5978 36.7061 28.9311V30.138C36.7061 30.4713 36.9762 30.7414 37.3095 30.7414H38.5164C38.8497 30.7414 39.1198 30.4713 39.1198 30.138V28.9311C39.1198 28.5978 38.8497 28.3276 38.5164 28.3276Z" fill="#A1BC51"/>
</g>
<defs>
<clipPath id="clip0_193_2383">
<rect width="35" height="35" fill="white" transform="translate(18 6)"/>
</clipPath>
</defs>
</svg>
